<?xml version="1.0" encoding="UTF-8"?>
<svg version="1.1" xmlns="http://www.w3.org/2000/svg" width="1024" height="1024">
<path d="M0 0 C1.03060547 0.80630859 1.03060547 0.80630859 2.08203125 1.62890625 C8.13301065 6.96379342 11.32585298 13.76724025 14.88671875 20.86328125 C16.56996257 24.21687338 18.41963885 27.39578359 20.4375 30.5625 C25.35405342 38.65234137 26.19248386 47.30605697 24.53515625 56.609375 C21.76017141 67.18387346 15.23262772 75.6735736 5.8515625 81.28515625 C-2.82901055 85.78679171 -12.70521693 86.54313857 -22.21875 84.2109375 C-24.88313288 83.25205245 -27.43768899 82.20350972 -30 81 C-30.66257812 80.69191406 -31.32515625 80.38382812 -32.0078125 80.06640625 C-33.35548529 79.41137459 -34.68182255 78.71252835 -36 78 C-36.928125 79.2684375 -36.928125 79.2684375 -37.875 80.5625 C-42.03199079 85.57464318 -47.76517718 89.36600373 -53.54760742 92.28686523 C-56.53728927 94.37532691 -56.8968885 95.5280355 -57.73828125 99.0234375 C-57.99657715 100.03390137 -58.25487305 101.04436523 -58.52099609 102.08544922 C-58.91279053 103.71377686 -58.91279053 103.71377686 -59.3125 105.375 C-63.3940234 121.02796866 -68.88443885 135.76831033 -75.6875 150.4375 C-76.22189697 151.60031494 -76.22189697 151.60031494 -76.76708984 152.78662109 C-79.33963633 158.16342149 -82.13701238 163.26713907 -87.375 166.4375 C-91.94851193 167.41753827 -95.52686037 166.92071227 -99.5 164.4375 C-101.66566057 160.91830157 -100.89250516 157.85602401 -100 154 C-98.99531367 151.40140518 -97.71374105 149.00272501 -96.375 146.5625 C-89.22979746 132.8661868 -84.07607999 118.77366541 -79.61474609 104.00244141 C-78.79084895 101.31872242 -77.90296344 98.65801913 -77 96 C-78.27875 95.773125 -79.5575 95.54625 -80.875 95.3125 C-92.1669445 92.74614898 -102.57380786 85.88881705 -108.9375 76.078125 C-114.43656728 65.32259635 -116.04904867 53.09156239 -113.08203125 41.375 C-110.72844849 34.79410841 -107.75817552 29.1292259 -103 24 C-102.37609375 23.31164062 -101.7521875 22.62328125 -101.109375 21.9140625 C-93.66195491 14.49422544 -83.19049366 10.42778914 -72.6875 9.875 C-61.67027199 10.38742921 -52.67745597 13.13294852 -44 20 C-43.48953125 20.5878125 -42.9790625 21.175625 -42.453125 21.78125 C-41.06537707 23.23111153 -41.06537707 23.23111153 -39.046875 22.8671875 C-36.7549114 21.89616475 -35.16320871 20.71407004 -33.25 19.125 C-23.83819647 11.96309841 -13.41640632 12 -2 12 C-11.84600293 3.79029555 -21.66843211 0.12676554 -34.3125 -0.5625 C-35.05306641 -0.60568359 -35.79363281 -0.64886719 -36.55664062 -0.69335938 C-38.37091464 -0.79870432 -40.1854355 -0.89978316 -42 -1 C-42.33 -0.34 -42.66 0.32 -43 1 C-43.99 0.67 -44.98 0.34 -46 0 C-46 0.66 -46 1.32 -46 2 C-45.21625 2.20625 -44.4325 2.4125 -43.625 2.625 C-41 4 -41 4 -39.6875 7.125 C-39.460625 8.07375 -39.23375 9.0225 -39 10 C-39.66 10.66 -40.32 11.32 -41 12 C-44.97359854 11.60609545 -48.40220329 10.09102539 -52.0625 8.5625 C-69.67213939 1.68559794 -87.09801657 2.88049187 -104.30859375 10.2890625 C-112.2581378 13.87891142 -119.46109579 18.23953676 -126 24 C-126.9178125 24.59554687 -127.835625 25.19109375 -128.78125 25.8046875 C-132.15692293 28.10702753 -135.14768254 30.65588983 -138.125 33.4375 C-138.68703125 33.96190674 -139.2490625 34.48631348 -139.828125 35.02661133 C-156.44609659 50.72006852 -169.66496486 68.82974547 -182 88 C-182.69480469 89.0725 -183.38960938 90.145 -184.10546875 91.25 C-219.52636131 147.33916595 -244.19090483 216.56738305 -249 283 C-249.05494629 283.74733398 -249.10989258 284.49466797 -249.16650391 285.26464844 C-249.53535748 290.50693899 -249.80297617 295.74860679 -250 301 C-250.04253906 302.05960938 -250.08507812 303.11921875 -250.12890625 304.2109375 C-250.68849549 332.63807101 -246.45182082 366.75828989 -226.125 388.4375 C-210.45169138 402.89346426 -190.53312577 403.75113628 -170.30224609 403.18798828 C-158.95647676 402.54210314 -146.36269266 399.68882291 -136 395 C-135.67 394.34 -135.34 393.68 -135 393 C-134.14148438 392.86464844 -133.28296875 392.72929688 -132.3984375 392.58984375 C-128.41665168 391.89875219 -125.18147223 390.39180702 -121.625 388.5625 C-120.58496826 388.03233276 -120.58496826 388.03233276 -119.52392578 387.49145508 C-106.3458287 380.64675205 -94.42227127 372.45845368 -83 363 C-82.42056641 362.52353027 -81.84113281 362.04706055 -81.24414062 361.55615234 C-74.87872587 356.30874745 -68.7091899 350.96610344 -63 345 C-60.34840236 342.33036428 -57.67759432 339.68219773 -54.984375 337.0546875 C-48.16352144 330.37119471 -41.91428103 323.51164241 -36 316 C-35.10535117 314.91591188 -34.20807866 313.83398517 -33.30859375 312.75390625 C-21.87876855 298.92868974 -11.95948337 283.97484998 -2.5 268.75 C-2.0248999 267.99356201 -1.5497998 267.23712402 -1.06030273 266.45776367 C0.0252667 264.67679988 1.02292874 262.84272211 2 261 C1.67 260.34 1.34 259.68 1 259 C1.99 258.67 2.98 258.34 4 258 C5.40462782 255.78673783 6.62487544 253.6386001 7.8125 251.3125 C8.3369873 250.31222778 8.3369873 250.31222778 8.87207031 249.29174805 C11.78913967 243.63676268 14.25619722 237.84669708 16.578125 231.92578125 C18.28598106 228.41153897 20.18850477 225.81204959 23.8125 224.1875 C26.96720558 223.91709666 29.89343576 224.46232542 33 225 C34.74966748 231.77996148 34.15086448 238.67550829 33.18652344 245.53295898 C31.90279651 254.66894977 30.63908351 264.95862526 36 273 C37.8064655 274.0146239 37.8064655 274.0146239 40 274 C47.60564136 270.57746139 50.78974271 263.25062546 54 256 C55.68754908 251.13455044 57.02846349 246.1755052 58.40429688 241.21484375 C59.96202835 235.80754597 61.40718255 231.37852305 65 227 C67.875 225.4375 67.875 225.4375 71 225 C74.15025345 226.09047235 76.25250795 226.9195145 78.17773438 229.70239258 C79.29058825 232.81197329 79.0881876 235.3427024 78.90625 238.63671875 C78.84566406 239.93673828 78.78507812 241.23675781 78.72265625 242.57617188 C78.61373346 244.62543451 78.50073035 246.67443057 78.38623047 248.72338867 C77.96579289 256.51091074 77.63847862 263.50855211 80 271 C81.90748506 273.2984916 81.90748506 273.2984916 85.125 273.5 C93.82278391 272.3777053 98.86155887 265.25050961 104.0078125 258.6796875 C108.6265194 253.06115047 108.6265194 253.06115047 109.60546875 246.23046875 C109.40566406 245.16441406 109.20585938 244.09835937 109 243 C108.3305348 233.53968852 108.56498864 226.81536072 114.35546875 219.22265625 C117.01726609 216.18977725 118.64764692 215.09720085 122.625 214 C127.56521739 214 127.56521739 214 130 216 C133.4770416 220.67602146 133.20057592 224.64204586 132.52734375 230.1640625 C131.76198729 234.27997947 130.48756236 238.09807226 129 242 C130.75376953 241.83951172 130.75376953 241.83951172 132.54296875 241.67578125 C134.09107688 241.55380909 135.63925825 241.43276408 137.1875 241.3125 C137.95642578 241.23966797 138.72535156 241.16683594 139.51757812 241.09179688 C144.25622179 240.74605892 147.1393553 240.86693834 151 244 C155.47908731 251.03856578 152.82054102 261.4485805 151.71191406 269.20239258 C150.30976986 277.48003617 150.30976986 277.48003617 153 285 C156.89440319 285.74179108 159.42245861 285.00917907 162.75 283.0625 C176.63580797 273.5505898 188.77701008 258.78048296 195 243 C195.23618314 239.75173138 195.23618314 239.75173138 195 237 C194.34 237 193.68 237 193 237 C191.74609375 235.390625 191.74609375 235.390625 190.4375 233.25 C190.00308594 232.55390625 189.56867188 231.8578125 189.12109375 231.140625 C185.73775222 224.68044676 185.76026537 216.02496804 187.87109375 209.171875 C191.12699451 202.21171993 195.58887932 197.15805594 202.0625 193.0625 C209.43329971 190.42295686 218.41189532 190.82590169 225.5 194 C231.81130257 197.65391201 235.72938495 203.12706208 238 210 C239.06761824 218.57466018 238.31314537 226.0018988 233 233 C228.49838822 237.37748646 223.63665422 240.28305156 218 243 C217.94152955 246.85410207 217.90624595 250.70808865 217.875 254.5625 C217.85824219 255.64853516 217.84148437 256.73457031 217.82421875 257.85351562 C217.78901341 263.64479442 218.01076326 268.54134642 220 274 C227.24639256 274.8181411 230.80015789 273.50282809 236.5625 269.08203125 C243.10706467 263.7363154 243.10706467 263.7363154 248 257 C248.66 257 249.32 257 250 257 C250.27239502 256.42419189 250.54479004 255.84838379 250.82543945 255.25512695 C252.88322582 251.30422845 255.58767342 247.79560205 258.1875 244.1875 C258.73986328 243.40568359 259.29222656 242.62386719 259.86132812 241.81835938 C267.05279141 231.8204714 274.54560837 224.45162155 286.83203125 221.265625 C293.77983586 220.27166154 299.92000903 221.45656577 306 225 C311.41393044 230.00247173 313.81172011 235.84766512 314.14453125 243.1875 C314.26311727 252.84687041 314.26311727 252.84687041 313 257 C317.35048162 258.31861943 320.82655291 257.63308799 325 256 C331.78765617 252.36024235 334.45060855 248.06974101 337 241 C337.84234886 238.87028779 338.6969334 236.74538208 339.5625 234.625 C339.95566406 233.62726563 340.34882812 232.62953125 340.75390625 231.6015625 C341.9435646 229.11782438 342.85160085 227.68685049 345 226 C348.21361938 225.09180322 350.46319005 224.90239819 353.75 225.5 C356.46068173 227.30712115 356.89264839 228.84268781 357.69189453 231.93115234 C358.25407089 235.70601958 357.60949275 239.31359846 357.0625 243.0625 C355.76615391 253.46054961 354.7424722 263.51944448 360 273 C362.70012347 273.67350769 362.70012347 273.67350769 366 273 C376.2323085 265.7112323 380.31173129 249.39059678 383.13916016 237.76000977 C384.47968083 232.6067989 386.30410894 229.70150792 390 226 C394.04741597 224.77132015 396.01190969 224.54891529 399.875 226.3125 C402 228 402 228 403 230 C403.35196737 236.46998842 403.02927248 242.93196412 402.53833008 249.38476562 C401.94993821 257.22999054 402.19767585 264.26936996 404 272 C405.32 272.33 406.64 272.66 408 273 C408 273.66 408 274.32 408 275 C420.28005336 270.12899762 429.12333277 259.72130902 435 248 C435.28852176 244.75915872 435.28852176 244.75915872 435 242 C434.34 241.67 433.68 241.34 433 241 C433.92098002 234.86821195 434.78588302 229.799411 439 225 C443.86700254 221.63945062 449.17747326 220.85645543 455 221 C459.37362461 221.82604714 462.16766442 223.01633068 465.0625 226.4375 C466 229 466 229 465.9375 231.1875 C464.71970832 233.54189724 463.42716947 234.06045053 461 235 C460.649375 234.505 460.29875 234.01 459.9375 233.5 C457.05625711 231.26936034 454.52990974 231.80019379 451 232 C451.38773364 242.46880827 457.71801891 250.02500273 464 258 C467.47941453 257.42998444 470.17898793 256.56360317 473.2578125 254.85546875 C474.04333496 254.42733887 474.82885742 253.99920898 475.63818359 253.55810547 C476.45883301 253.10580566 477.27948242 252.65350586 478.125 252.1875 C495.78798773 242.68080518 495.78798773 242.68080518 504 243 C504 244.32 504 245.64 504 247 C503.28980713 247.39268066 502.57961426 247.78536133 501.84790039 248.18994141 C498.5838792 249.99764978 495.32318366 251.81127892 492.0625 253.625 C490.94552734 254.24246094 489.82855469 254.85992187 488.67773438 255.49609375 C482.25669579 259.07379853 476.02961086 262.7930226 470 267 C470.30035156 267.76183594 470.60070312 268.52367187 470.91015625 269.30859375 C473.30278156 275.80517976 475.09076921 281.2151167 473 288 C470.08290522 293.72614902 466.0905801 296.96980663 460 299 C446.67532468 299.83766234 446.67532468 299.83766234 441 297 C438.37492936 293.58349016 437.16811641 290.17681488 436.5625 285.9375 C437.54024191 279.37266144 440.21535623 275.43454788 445 271 C446.35555293 269.35135455 447.69631653 267.68996005 449 266 C448.04737966 264.51714758 447.08771595 263.03881799 446.125 261.5625 C445.32449219 260.32693359 445.32449219 260.32693359 444.5078125 259.06640625 C443.16165694 256.88961129 443.16165694 256.88961129 441 256 C440.52691406 256.67804688 440.05382812 257.35609375 439.56640625 258.0546875 C431.50838155 269.39561115 422.74268586 281.50239372 409 286 C403.51850756 286.59798099 398.76266386 285.77100443 394 283 C391.68625868 280.87784235 389.68726469 278.65232896 388 276 C388 275.34 388 274.68 388 274 C387.01 274 386.02 274 385 274 C385 272.35 385 270.7 385 269 C384.46375 269.680625 383.9275 270.36125 383.375 271.0625 C382.59125 272.031875 381.8075 273.00125 381 274 C380.56429687 274.5775 380.12859375 275.155 379.6796875 275.75 C375.32218078 281.27427081 370.60472321 283.7984256 364 286 C357.49992868 286.50980952 352.18634144 285.58404519 347.078125 281.44140625 C341.56002493 275.77002562 338 267.99065473 338 260 C337.10861328 260.59748047 337.10861328 260.59748047 336.19921875 261.20703125 C328.16315951 266.34361033 320.8119906 268.98111232 311.25 269.125 C307.83763813 269.34374115 306.46435942 269.56981042 303.9296875 271.91796875 C302.19064379 274.22540121 300.59148181 276.58943555 299 279 C293.68565412 284.31434588 286.34770737 287.17760276 278.875 287.5 C272.44152905 287.20711043 268.02995371 284.71418313 263.1875 280.625 C258.70714521 275.24857425 257.27053449 269.72635905 256 263 C255.32195313 263.76183594 254.64390625 264.52367187 253.9453125 265.30859375 C235.96718676 285.3418277 235.96718676 285.3418277 224 289 C222.35 289 220.7 289 219 289 C218.67 295.6 218.34 302.2 218 309 C219.35372711 308.83643509 220.70745422 308.67287018 222.10220337 308.50434875 C228.85797855 307.83318698 235.58183381 307.88901127 242.36474609 307.93041992 C243.77359046 307.93529481 245.18243655 307.93969085 246.5912838 307.94364452 C249.55749441 307.95278951 252.52367129 307.96490721 255.48986053 307.97939682 C259.88672531 308.00049102 264.28357827 308.01238572 268.68048096 308.02212524 C286.3778865 308.06364624 304.07513533 308.14470854 321.7723484 308.23571491 C330.63614408 308.28099317 339.4998945 308.32043436 348.36376953 308.34643555 C356.19055857 308.36940238 364.01722155 308.40273032 371.84391057 308.44870156 C375.96060167 308.4725418 380.07716929 308.4913338 384.19392776 308.49761391 C388.04067388 308.50365441 391.88709641 308.5236157 395.73372269 308.55427551 C397.14058182 308.56305366 398.54748319 308.56677877 399.95436859 308.56500816 C401.87738205 308.5633518 403.8003811 308.58184414 405.72329712 308.60127258 C406.79710443 308.60588155 407.87091175 308.61049051 408.97725868 308.61523914 C416.10026569 309.52191755 420.16115978 313.74059086 424.6875 318.9375 C428.06682495 324.24786778 428.32635196 329.60521499 428.4140625 335.6953125 C428.43356461 336.56793732 428.45306671 337.44056213 428.47315979 338.33963013 C428.53455012 341.26798882 428.58062721 344.19633681 428.625 347.125 C428.64301666 348.1409021 428.66103333 349.1568042 428.67959595 350.20349121 C429.02600534 369.79195154 429.13321423 389.38375481 429.1807785 408.97493744 C429.18746758 411.239027 429.19757308 413.50307842 429.20855713 415.76715088 C429.22534206 419.37893536 429.23127252 422.99059174 429.22932243 426.60241318 C429.23042789 428.56797444 429.24107609 430.53352324 429.25209045 432.49905396 C429.22134307 444.7643434 428.81359095 455.62108928 420.2109375 464.9375 C412.64537394 472.171505 404.53393131 473.45638215 394.33959961 473.34057617 C392.80144089 473.34123329 392.80144089 473.34123329 391.23220825 473.34190369 C387.87205384 473.33982815 384.51241007 473.31655526 381.15234375 473.29296875 C378.8110837 473.28736841 376.46982013 473.28310038 374.1285553 473.28010559 C367.9882728 473.26869136 361.84820566 473.23925356 355.70800781 473.20599365 C349.43362338 473.17521894 343.1592039 473.16158446 336.88476562 473.14648438 C324.58974951 473.11438064 312.29489272 473.06322572 300 473 C300.00523682 474.14065918 300.01047363 475.28131836 300.01586914 476.45654297 C300.03393869 480.67951679 300.04543919 484.90248718 300.05493164 489.12548828 C300.05996737 490.95492121 300.06679627 492.78435009 300.07543945 494.61376953 C300.08753824 497.23991898 300.09323583 499.86601532 300.09765625 502.4921875 C300.10281754 503.31306854 300.10797882 504.13394958 300.11329651 504.97970581 C300.11387171 510.77225659 300.11387171 510.77225659 299 513 C304.30326597 513.10455424 309.60150447 513.14324499 314.90576172 513.12207031 C316.7079534 513.12401198 318.51021925 513.1436599 320.31201172 513.18164062 C330.56378084 513.84861018 330.56378084 513.84861018 339.41137695 509.83666992 C341.01814276 507.24715443 341.01814276 507.24715443 341.98413086 504.5324707 C344.16898528 499.08582449 349.37206895 495.92147041 354.3125 493.125 C363.53013225 490.31284101 371.95924425 490.47886355 381 494 C383.9375 496.3125 383.9375 496.3125 386 499 C386.845625 499.9075 387.69125 500.815 388.5625 501.75 C393.71850291 508.12587742 396.44542953 515.79471922 396 524 C394.39712755 533.71292861 390.47750564 540.60476491 383 547 C376.62346866 551.28138533 369.66237826 552.90909573 362 552 C352.85966372 549.78819851 345.98149971 545.42791945 340.5 537.75 C339 535 339 535 339 532 C338.3766124 532.00222061 337.75322479 532.00444122 337.11094666 532.00672913 C330.60562718 532.02890278 324.1003185 532.04395697 317.5949707 532.05493164 C315.16918501 532.05995129 312.74340234 532.06676837 310.31762695 532.07543945 C306.82502498 532.0876088 303.33246311 532.0932521 299.83984375 532.09765625 C298.76041 532.10281754 297.68097626 532.10797882 296.5688324 532.11329651 C291.26708094 532.1136889 286.22230264 531.93451731 281 531 C281 530.34 281 529.68 281 529 C281.66 529 282.32 529 283 529 C282.84402344 527.95199219 282.68804688 526.90398438 282.52734375 525.82421875 C282.33036458 524.44536454 282.13377004 523.06645533 281.9375 521.6875 C281.83373047 520.99720703 281.72996094 520.30691406 281.62304688 519.59570312 C281.16191164 516.30415164 280.93405375 514.19783876 282 511 C282.07309419 508.37591841 282.09188748 505.77929627 282.0625 503.15625 C282.05871338 502.39074829 282.05492676 501.62524658 282.05102539 500.83654785 C282.03881061 498.39097475 282.0201831 495.94551955 282 493.5 C281.97343538 490.28125309 281.95342215 487.06256519 281.9375 483.84375 C281.92920166 483.10306274 281.92090332 482.36237549 281.91235352 481.59924316 C281.89729997 478.4510332 281.99628464 476.01114608 283 473 C262.21 473 241.42 473 220 473 C220.33 481.91 220.66 490.82 221 500 C220.855625 503.403125 220.71125 506.80625 220.5625 510.3125 C220.35478315 515.58629445 220.35478315 515.58629445 222.56640625 520.109375 C224.59295834 521.60579689 224.59295834 521.60579689 226.828125 522.7265625 C231.80959897 525.64735479 234.3617994 531.34648025 236.375 536.5625 C237.90991839 545.00455112 237.03618933 552.66538697 232.74609375 560.203125 C227.20012288 568.12162291 220.64003413 572.65600038 211.1484375 574.65234375 C202.635664 575.59233983 195.28060364 573.46877192 188.19140625 568.7578125 C181.10386865 563.07262191 177.93197239 555.83446422 176.71875 546.9375 C176.31789009 538.65306177 179.20563513 531.06836969 184.37890625 524.6953125 C186.72913281 522.23748521 189.01272274 520.62942396 192 519 C192.66 519 193.32 519 194 519 C194 503.82 194 488.64 194 473 C173.87 473 153.74 473 133 473 C133.07908164 489.88812584 133.07908164 489.88812584 133.18017578 506.77612305 C133.18601807 508.89631957 133.19111425 511.01651834 133.1953125 513.13671875 C133.20554443 514.23391235 133.21577637 515.33110596 133.22631836 516.46154785 C133.22668091 518.04425476 133.22668091 518.04425476 133.22705078 519.65893555 C133.231492 520.5716069 133.23593323 521.48427826 133.24050903 522.42460632 C132.96694038 525.35400561 132.39813828 527.40785958 131 530 C127.94104751 532.22714499 125.11569861 532.26870678 121.40527344 532.31884766 C119.72398346 532.34865219 119.72398346 532.34865219 118.00872803 532.37905884 C116.80444153 532.39061005 115.60015503 532.40216125 114.359375 532.4140625 C113.12205627 532.43342865 111.88473755 532.4527948 110.60992432 532.4727478 C107.32861429 532.52237989 104.04733888 532.56366067 100.76586914 532.60089111 C97.41411724 532.64097656 94.06255655 532.69221225 90.7109375 532.7421875 C84.14073391 532.83824493 77.57045645 532.92329277 71 533 C70.52494019 534.01429077 70.52494019 534.01429077 70.0402832 535.04907227 C69.61062256 535.94166748 69.18096191 536.8342627 68.73828125 537.75390625 C68.31844971 538.6363501 67.89861816 539.51879395 67.46606445 540.42797852 C64.19777944 546.16176413 58.70370769 550.5741275 52.390625 552.5625 C43.28842584 554.22826194 34.01791622 553.93080409 26 549 C23.42572656 546.84758142 21.19505431 544.5317956 19 542 C18.34 541.34 17.68 540.68 17 540 C12.58126706 529.9252889 12.21810604 521.33039676 15.7109375 510.87109375 C18.73044068 503.79326749 24.84398476 498.02652462 31.9375 495.0625 C40.38907171 492.50192481 47.8556936 492.36247727 56 496 C59.91510398 498.15224523 63.2513283 500.30524316 65.09716797 504.48364258 C66.66500499 507.93852646 67.95710605 509.68089995 71 512 C78.38807379 513.90829418 86.37467404 513.25956366 93.9375 513.125 C96.07356841 513.12305709 98.20964596 513.12561323 100.34570312 513.1328125 C105.56503431 513.14062088 110.78152698 513.09212482 116 513 C115.85936865 510.70800823 115.71234057 508.41640814 115.5625 506.125 C115.48128906 504.84882812 115.40007812 503.57265625 115.31640625 502.2578125 C115.20793973 499.11699848 115.20793973 499.11699848 114 497 C113.92818179 494.28239892 113.90700494 491.59140612 113.9375 488.875 C113.94201172 488.12089844 113.94652344 487.36679687 113.95117188 486.58984375 C113.96296501 484.72652873 113.98090058 482.86325445 114 481 C114.66 481 115.32 481 116 481 C115.814375 480.05125 115.62875 479.1025 115.4375 478.125 C115 475 115 475 116 473 C115.45592499 473.00276538 114.91184998 473.00553076 114.35128784 473.00837994 C101.08799057 473.07474981 87.82472255 473.1241422 74.56129456 473.15543652 C68.14708256 473.17108001 61.73299058 473.1922946 55.31884766 473.22631836 C49.12671735 473.25895822 42.93470238 473.27686292 36.74249268 473.28463173 C34.38224472 473.29016688 32.02200295 473.30097568 29.6618042 473.31719017 C26.35122121 473.33902546 23.04111238 473.34196431 19.73046875 473.34057617 C18.27281853 473.35675491 18.27281853 473.35675491 16.78572083 473.3732605 C6.83393878 473.32822533 0.47228044 470.33614051 -6.79296875 463.47265625 C-14.16693412 455.21120478 -14.15016687 445.28383156 -14.17700195 434.75317383 C-14.18357315 433.62879913 -14.19014435 432.50442444 -14.19691467 431.34597778 C-14.21659013 427.63299486 -14.22829727 423.92005227 -14.23828125 420.20703125 C-14.24439454 418.2996647 -14.24439454 418.2996647 -14.25063133 416.35376549 C-14.26932237 410.31654822 -14.28389384 404.2793552 -14.2922433 398.24211675 C-14.30200476 391.30089062 -14.32830601 384.3599843 -14.36874419 377.41887075 C-14.40268005 371.38433449 -14.41439935 365.34995212 -14.41844749 359.31531334 C-14.42330578 356.75937417 -14.43489796 354.20343823 -14.45348549 351.64756203 C-14.47793671 348.06271801 -14.47690047 344.4787014 -14.4699707 340.89379883 C-14.48278076 339.84873672 -14.49559082 338.80367462 -14.50878906 337.72694397 C-14.45054862 329.415835 -12.76168958 321.29081379 -7.6875 314.5 C-0.46374083 307.78022403 8.86471158 307.84191847 18.21313477 307.87974548 C19.39332561 307.87846385 19.39332561 307.87846385 20.5973587 307.87715632 C23.212065 307.87552001 25.82670595 307.88099237 28.44140625 307.88647461 C30.32433572 307.88675691 32.2072653 307.88659792 34.0901947 307.8860321 C39.18667556 307.88574579 44.28313278 307.89161571 49.37960815 307.89860606 C54.71140421 307.90486722 60.04320084 307.90544558 65.375 307.90663147 C75.46474788 307.90973664 85.55448489 307.91793906 95.64422798 307.92798096 C107.13391532 307.93916737 118.62360318 307.94465892 130.1132946 307.94967639 C153.74220242 307.96012235 177.3711006 307.97770603 201 308 C201.02560917 303.83594898 201.04102738 299.67191851 201.0546875 295.5078125 C201.06568481 293.74981323 201.06568481 293.74981323 201.0769043 291.95629883 C201.10419871 280.8552709 199.74967145 270.74451448 197 260 C196.00033203 261.41539062 196.00033203 261.41539062 194.98046875 262.859375 C184.45624435 277.59444652 172.48322631 294.24460682 154 299 C148.27981734 299.80526843 143.89261122 299.29966803 139 296 C133.85666662 290.85666662 132.90011028 285.48950998 132.75 278.5 C132.86041381 271.24949326 133.90481052 264.15784556 135 257 C132.91798472 256.49453964 130.83432933 255.99583165 128.75 255.5 C127.58984375 255.2215625 126.4296875 254.943125 125.234375 254.65625 C121.89669288 253.86743548 121.89669288 253.86743548 118 254 C116.4097832 255.93988207 115.12622503 257.76007286 113.8125 259.875 C109.71913153 266.11401701 105.24023704 271.66307962 100 277 C99.40445312 277.6084375 98.80890625 278.216875 98.1953125 278.84375 C93.45058659 283.30422966 88.24690972 285.8289835 81.671875 286.09375 C76.21005182 285.7221974 72.42151883 284.20776857 68 281 C64 275.87179487 64 275.87179487 64 273 C63.34 272.67 62.68 272.34 62 272 C61.67 271.34 61.34 270.68 61 270 C60.29875 270.81984375 59.5975 271.6396875 58.875 272.484375 C47.83727667 285.13799446 47.83727667 285.13799446 39.56640625 286.359375 C33.61128487 286.68568302 28.77945205 285.64882898 24 282 C19.02650186 277.00394632 17.0462017 271.6188089 15 265 C14.60321045 265.67353516 14.2064209 266.34707031 13.79760742 267.04101562 C0.09342046 290.24579678 -14.59767188 312.36206314 -32 333 C-32.44811035 333.53302734 -32.8962207 334.06605469 -33.35791016 334.61523438 C-67.35876802 374.97902774 -110.5314067 412.50207745 -165 419 C-169.92040574 419.28736292 -174.82203498 419.3347432 -179.75 419.3125 C-180.40985901 419.31001251 -181.06971802 419.30752502 -181.74957275 419.30496216 C-198.43564046 419.20774166 -212.10855078 416.49408712 -227 409 C-227.91394531 408.54882812 -228.82789063 408.09765625 -229.76953125 407.6328125 C-240.94923657 401.52822381 -250.45070385 391.83440705 -257 381 C-257.43054688 380.30519531 -257.86109375 379.61039063 -258.3046875 378.89453125 C-261 374.38685345 -261 374.38685345 -261 372 C-261.66 371.67 -262.32 371.34 -263 371 C-277.28116309 336.85150459 -275.70637444 298.31353871 -271.65625 262.3046875 C-271.15534152 257.82651349 -270.83969192 253.50198537 -271 249 C-270.34 249 -269.68 249 -269 249 C-268.96334229 248.37343506 -268.92668457 247.74687012 -268.88891602 247.10131836 C-268.3010221 239.06773715 -266.74616564 231.40219311 -264.9375 223.5625 C-264.78382965 222.89214722 -264.6301593 222.22179443 -264.47183228 221.53112793 C-255.78128869 183.75428733 -242.95598452 147.40442072 -225.02880859 112.98388672 C-223.90700752 110.82067943 -222.80720807 108.64693502 -221.70703125 106.47265625 C-212.71291451 88.85578106 -202.17402409 72.57790098 -190 57 C-188.90365234 55.58267578 -188.90365234 55.58267578 -187.78515625 54.13671875 C-183.76966224 49.02392142 -179.5273542 44.16033376 -175.140625 39.36328125 C-173.27147093 37.29970787 -171.47676638 35.19485387 -169.6875 33.0625 C-149.52894019 10.15504567 -118.91095664 -9.82536794 -87.81884766 -12.1640625 C-78.46144068 -12.64754531 -70.22364533 -11.77469742 -61.09765625 -9.54296875 C-56.33966762 -8.70897074 -52.5865841 -9.76190368 -48 -11 C-29.46989959 -14.80104624 -14.86567482 -11.93796976 0 0 Z M-100.75 28.87890625 C-108.44248221 38.39835298 -110.1047855 48.11511435 -109.23632812 60.04541016 C-108.70344703 64.45268916 -107.15829515 68.16303084 -105 72 C-104.4225 73.051875 -103.845 74.10375 -103.25 75.1875 C-96.09957239 84.12553451 -87.35015747 89.44784171 -76 91 C-64.20309361 91.98137176 -55.26153253 88.45532122 -45.75 81.6875 C-37.80507129 73.92313785 -33.93578439 64.09680529 -33.6875 53.125 C-33.88369904 42.21864142 -37.37303346 34.01871737 -44.8515625 26.01953125 C-53.71914513 17.73487736 -63.22829836 15.48501716 -75.10546875 15.7265625 C-85.56114532 16.46066216 -93.68650455 21.29510868 -100.75 28.87890625 Z M-34.5625 26.3125 C-35.2740625 27.1478125 -35.2740625 27.1478125 -36 28 C-35.566875 29.0828125 -35.566875 29.0828125 -35.125 30.1875 C-34.75375 31.115625 -34.3825 32.04375 -34 33 C-33.67 33.78375 -33.34 34.5675 -33 35.375 C-28.94986097 46.00661496 -28.57893618 57.1330914 -32 68 C-32.34665557 69.66394675 -32.68676972 71.32943851 -33 73 C-24.93431283 78.73904664 -16.7541538 81.85222882 -6.75 80.4375 C0.63437254 78.85651162 7.96593134 75.86177267 13 70 C19.29315363 60.09602051 22.00680553 51.02423377 19.38671875 39.2421875 C16.67144639 31.61071718 11.4777388 24.95278892 4.625 20.5625 C-8.98244444 14.69722223 -23.39986352 16.23890123 -34.5625 26.3125 Z M291 233 C288.8047598 238.43033103 288.96458705 241.51658413 291.0703125 246.9765625 C292.13041051 249.28383464 293.19667311 251.19667311 295 253 C295.66 253 296.32 253 297 253 C298.22264969 242.82188985 298.22264969 242.82188985 296 233 C294.35 233 292.7 233 291 233 Z M278 249 C274.16473829 256.5849149 273.01233481 263.5244545 274 272 C274.7721512 274.29323955 274.7721512 274.29323955 276 276 C279.14171025 277.30904594 280.69453884 277.09748761 283.9375 276.0625 C287.918715 273.38127357 290.54035709 270.10812699 293 266 C293 265.34 293 264.68 293 264 C291.80646968 263.09670782 290.56818286 262.25218518 289.3125 261.4375 C284.62783145 258.08417597 282.38496603 254.15978227 280 249 C279.34 249 278.68 249 278 249 Z M455 278 C452.84694043 281.85756507 451.60746746 284.55129785 452 289 C452.99 289.33 453.98 289.66 455 290 C457.44897847 286.32653229 457.31537716 284.33643601 457 280 C456.34 279.34 455.68 278.68 455 278 Z M44.33886719 353.67260742 C42.57540766 356.73808148 42.49332471 359.01498234 42.328125 362.55078125 C42.29551575 363.23288162 42.26290649 363.91498199 42.22930908 364.61775208 C41.79715267 374.92889536 41.77668001 385.25793669 41.75976562 395.57641602 C41.74991621 399.21848199 41.71872985 402.86001543 41.6875 406.50195312 C41.68098124 408.8281217 41.67572637 411.15429423 41.671875 413.48046875 C41.6595282 414.56377975 41.6471814 415.64709076 41.63446045 416.76322937 C41.55486431 423.90900174 41.55486431 423.90900174 45 430 C54.02736236 434.20593019 70.83149678 430.95523384 79.78515625 428.1171875 C86.46591327 425.61805306 91.79934504 422.74934999 95.26953125 416.19140625 C96.81730431 411.54808706 96.67369561 406.80258253 96 402 C94.38492402 398.44678747 94.38492402 398.44678747 92 396 C91.505 395.4225 91.01 394.845 90.5 394.25 C88.784872 392.82072666 87.00401439 391.9691545 85 391 C85.42152344 390.32453125 85.84304688 389.6490625 86.27734375 388.953125 C86.82519531 388.06109375 87.37304688 387.1690625 87.9375 386.25 C88.48277344 385.36828125 89.02804687 384.4865625 89.58984375 383.578125 C92.32630185 378.57518222 92.71742935 373.64454111 91.609375 368.015625 C89.79221119 362.00500624 86.24005073 358.34074432 81 355 C71.90851473 350.60089422 52.56366419 345.39099597 44.33886719 353.67260742 Z M275.81152344 350.03808594 C273.7903056 350.08412949 271.77001016 350.16633094 269.75 350.25 C268.00976562 350.31960938 268.00976562 350.31960938 266.234375 350.390625 C262.2154912 351.14780601 260.06526451 352.28910132 257 355 C254.46773156 361.40870541 254.52581628 368.01689081 254.296875 374.8359375 C254.25056946 376.06986237 254.20426392 377.30378723 254.15655518 378.57510376 C254.06155147 381.17881835 253.97105109 383.78270067 253.88476562 386.38671875 C253.75068017 390.35487104 253.59497099 394.32177767 253.4375 398.2890625 C253.34764424 400.82547462 253.25906059 403.36193219 253.171875 405.8984375 C253.12407898 407.07683197 253.07628296 408.25522644 253.02703857 409.46932983 C252.65757813 418.93006196 252.65757813 418.93006196 255 428 C258.79382011 431.66189545 263.1707294 431.42521878 268.1875 431.36328125 C269.35768677 431.36402901 269.35768677 431.36402901 270.55151367 431.36479187 C272.19550127 431.36245876 273.83949293 431.35277536 275.48339844 431.33618164 C277.99186329 431.31257657 280.49926463 431.31562795 283.0078125 431.32226562 C284.6093813 431.31668849 286.21094565 431.30957839 287.8125 431.30078125 C288.93144653 431.30214836 288.93144653 431.30214836 290.07299805 431.30354309 C294.110145 431.24889889 297.45267107 431.02155519 301 429 C302.26066301 425.21801096 301.42292658 423.63636792 300 420 C298.23806275 418.23806275 295.70681063 418.76572669 293.3125 418.68359375 C292.13816406 418.64169922 290.96382812 418.59980469 289.75390625 418.55664062 C288.51511719 418.51732422 287.27632812 418.47800781 286 418.4375 C284.79214844 418.39431641 283.58429687 418.35113281 282.33984375 418.30664062 C275.88927767 418.08553852 269.45418604 417.95131541 263 418 C263.495 417.01 263.495 417.01 264 416 C264.08372659 414.47851674 264.10730027 412.95344222 264.09765625 411.4296875 C264.09443359 410.53378906 264.09121094 409.63789062 264.08789062 408.71484375 C264.07532227 407.30912109 264.07532227 407.30912109 264.0625 405.875 C264.05798828 404.93011719 264.05347656 403.98523438 264.04882812 403.01171875 C264.03702357 400.67441613 264.02055759 398.33723939 264 396 C264.95366455 395.97494385 265.9073291 395.9498877 266.88989258 395.92407227 C270.42909107 395.82987929 273.96809875 395.72968769 277.50708008 395.62768555 C279.03861018 395.58438167 280.57018715 395.54270333 282.10180664 395.50268555 C284.30369182 395.44487268 286.50534211 395.38121031 288.70703125 395.31640625 C289.39150833 395.29969376 290.07598541 395.28298126 290.78120422 395.26576233 C293.77120104 395.1726445 296.14062311 394.95312563 299 394 C299.99 393.67 300.98 393.34 302 393 C302.68493373 390.14221967 302.68493373 390.14221967 303 387 C302.34 386.01 301.68 385.02 301 384 C297.89961456 383.47080367 297.89961456 383.47080367 294.234375 383.453125 C293.56335754 383.43280212 292.89234009 383.41247925 292.20098877 383.39154053 C290.77886477 383.35130458 289.35652558 383.31814864 287.93408203 383.29150391 C285.77174569 383.25041323 283.61090288 383.18773622 281.44921875 383.12109375 C275.51043378 382.96474204 269.86038408 382.84592053 264 384 C263.97289877 381.4374282 263.95311229 378.87514635 263.9375 376.3125 C263.92912109 375.59126953 263.92074219 374.87003906 263.91210938 374.12695312 C263.89456368 370.28444618 264.06475779 366.73360474 265 363 C274.13527198 361.76228304 283.23499828 361.96384529 292.43017578 362.17138672 C294.41935474 362.21370968 296.40892752 362.23603677 298.3984375 362.2578125 C300.15679932 362.29092529 300.15679932 362.29092529 301.95068359 362.32470703 C305.29663789 361.96841246 306.6558559 361.37525792 309 359 C309.66666667 356.5 309.66666667 356.5 309 354 C306.74470563 351.25442425 304.85933615 350.97332237 301.375 350.3125 C292.87721612 349.62764571 284.32573542 349.88991357 275.81152344 350.03808594 Z M106 355 C105.40676441 361.28290421 106.53761966 365.26428696 109.5 370.75 C109.8609375 371.44246826 110.221875 372.13493652 110.59375 372.84838867 C114.55076863 380.29270171 119.09446346 387.31540729 124.31640625 393.9375 C125.05761719 394.88625 125.79882812 395.835 126.5625 396.8125 C127.24441406 397.64394531 127.92632813 398.47539063 128.62890625 399.33203125 C130.52730676 403.02606985 130.04115792 405.0219091 129 409 C127.33137223 412.36126456 125.43355542 415.50653991 123.49609375 418.71875 C121.78459888 422.47242022 121.49000824 424.92006593 122 429 C125.26798549 431.178657 126.20905038 431.72208564 130 431 C134.64750434 426.21189889 137.44655154 420.73108303 140.4375 414.8125 C141.4893449 412.76029444 142.54143903 410.70821661 143.59375 408.65625 C144.14417969 407.57730469 144.69460938 406.49835938 145.26171875 405.38671875 C147.06036936 401.8823815 148.88547525 398.39253436 150.71875 394.90625 C151.34464473 393.71256882 151.97037789 392.5188029 152.59594727 391.32495117 C153.79136257 389.04489815 154.98960378 386.76632367 156.19116211 384.48950195 C163.3142366 371.33774831 163.3142366 371.33774831 167 357 C166.17657468 354.68019054 166.17657468 354.68019054 165 353 C162.75775342 352.41036322 162.75775342 352.41036322 160 353 C154.09558379 358.79584844 150.87365989 365.67195845 147.3125 373.0625 C146.74466797 374.22072266 146.17683594 375.37894531 145.59179688 376.57226562 C144.53610428 378.72696762 143.48456027 380.88371129 142.4387207 383.04321289 C140.98061298 386.03984323 139.49533703 389.02179863 138 392 C137.61255615 391.33057373 137.2251123 390.66114746 136.82592773 389.97143555 C135.03218941 386.87539041 133.23486353 383.78144188 131.4375 380.6875 C130.82841797 379.63498047 130.21933594 378.58246094 129.59179688 377.49804688 C122.54204507 364.29932418 122.54204507 364.29932418 113 353 C109.48899946 352.49842849 108.55101983 352.44898017 106 355 Z M178 356 C177.54234471 359.13820771 177.30480172 361.06084358 179.2355957 363.66918945 C181.52128229 365.39317971 182.8267383 365.34725978 185.66796875 365.29296875 C187.00698242 365.2784668 187.00698242 365.2784668 188.37304688 365.26367188 C189.30181641 365.23853516 190.23058594 365.21339844 191.1875 365.1875 C192.59805664 365.16719727 192.59805664 365.16719727 194.03710938 365.14648438 C196.35865038 365.11113096 198.67903653 365.06178674 201 365 C200.99333817 366.04783409 200.99333817 366.04783409 200.98654175 367.11683655 C200.94635339 373.72218627 200.91595908 380.32750152 200.89637566 386.93294621 C200.88596894 390.32831632 200.87186716 393.72358483 200.84912109 397.11889648 C200.8230958 401.02847041 200.81350146 404.93800417 200.8046875 408.84765625 C200.79436493 410.05833267 200.78404236 411.26900909 200.77340698 412.51637268 C200.74959841 420.96069195 200.74959841 420.96069195 203 429 C205.67813631 431.22274553 205.67813631 431.22274553 208 430.875 C210.65048203 429.71541411 211.54792359 428.48927384 213 426 C213.9104185 422.38347915 214.12192525 419.01288548 214.11352539 415.29174805 C214.11344986 414.17096359 214.11337433 413.05017914 214.11329651 411.89543152 C214.10813522 410.6963063 214.10297394 409.49718109 214.09765625 408.26171875 C214.0962413 407.02581497 214.09482635 405.78991119 214.09336853 404.51655579 C214.08872618 401.24341655 214.07975311 397.97032713 214.06866455 394.69720459 C214.05840404 391.35217752 214.05394631 388.00714827 214.04882812 384.66210938 C214.03780907 378.1080535 214.02107836 371.55403082 214 365 C214.7113208 365.00523682 215.4226416 365.01047363 216.15551758 365.01586914 C219.37450275 365.03664018 222.59347383 365.04966058 225.8125 365.0625 C226.93205078 365.07087891 228.05160156 365.07925781 229.20507812 365.08789062 C230.27822266 365.09111328 231.35136719 365.09433594 232.45703125 365.09765625 C233.44678955 365.10289307 234.43654785 365.10812988 235.45629883 365.11352539 C238.12392734 365.11069959 238.12392734 365.11069959 241 364 C241 363.01 241 362.02 241 361 C241.66 361 242.32 361 243 361 C242.73343428 358.06556598 242.73343428 358.06556598 242 355 C238.620127 352.74675133 237.45086361 352.74370134 233.49047852 352.7253418 C232.36243301 352.71580978 231.23438751 352.70627777 230.07215881 352.69645691 C228.85338547 352.69736832 227.63461212 352.69827972 226.37890625 352.69921875 C225.12746323 352.69493362 223.8760202 352.6906485 222.58665466 352.68623352 C219.93775427 352.68048552 217.28924295 352.67906014 214.64038086 352.68432617 C211.2496151 352.6901194 207.85939585 352.6731928 204.46872044 352.6499815 C201.2304531 352.6316873 197.99221597 352.63542977 194.75390625 352.63671875 C192.92878258 352.62290413 192.92878258 352.62290413 191.06678772 352.60881042 C189.36999123 352.61815361 189.36999123 352.61815361 187.63891602 352.62768555 C186.14691429 352.62674141 186.14691429 352.62674141 184.62477112 352.6257782 C181.562275 353.06240782 180.18346702 353.83045726 178 356 Z M329 362 C323.97140911 367.07657362 321.85916318 371.65251031 321.625 378.8125 C321.67096243 384.05879458 321.67096243 384.05879458 324.0625 388.5625 C331.2127352 394.49567389 339.07573309 394.85385993 347.99414062 395.81640625 C353.20891755 396.43746798 357.5022725 397.06388349 362 400 C364.35620437 403.53430656 364.48991613 404.83571287 364 409 C362.13171509 413.14271871 360.23504301 415.24126533 356.0625 416.875 C346.53941225 419.49345948 337.25759662 418.18955109 327.875 415.65625 C325.09660639 415.02205146 322.83361893 414.72450927 320 415 C317.65952546 416.93358244 317.65952546 416.93358244 317.5625 420.375 C317.65095666 424.07156724 317.65095666 424.07156724 320.125 426.3125 C329.99886378 432.10802874 343.33381705 431.9792927 354.32421875 429.71875 C363.4293467 427.272993 371.029944 422.91915525 376 414.6875 C377.60280464 408.77715789 377.85655961 403.5220922 375.875 397.6875 C371.38239515 391.24809971 366.38984835 388.92153401 359 387 C354.93655427 386.36847995 350.85375103 386.11043043 346.75390625 385.828125 C342.11753307 385.43989407 338.7813334 384.97742787 335 382 C333.58999336 379.17998673 333.75451549 377.12992745 334 374 C335.44757229 370.33849362 336.57889024 369.22256371 340.08203125 367.37109375 C344.28267788 365.66442824 348.14338085 365.62331112 352.625 365.75 C353.73101563 365.75773437 353.73101563 365.75773437 354.859375 365.765625 C358.69707348 365.82064577 362.25984674 366.1710306 366 367 C368.73137522 367.21162006 371.24441251 367.1355207 374 367 C376.22966747 365.17796419 376.22966747 365.17796419 376.3125 362.5625 C376.18900847 360.03417835 376.18900847 360.03417835 374.9375 358.3125 C362.08681432 349.6071968 340.88371994 353.86997004 329 362 Z M301 423 C302 425 302 425 302 425 Z M115 483 C116 486 116 486 116 486 Z " fill="#010101" transform="translate(415,223)"/>
<path d="M0 0 C2.07818855 3.07641956 2.78240965 6.43420256 3.640625 9.99609375 C3.84461914 10.80715576 4.04861328 11.61821777 4.25878906 12.45385742 C4.71736448 14.28224962 5.17115737 16.11184554 5.62109375 17.94238281 C6.47727338 21.40947572 7.35481453 24.87079794 8.234375 28.33203125 C8.87034972 30.84491091 9.50576887 33.35793125 10.140625 35.87109375 C10.44645508 37.08079834 10.75228516 38.29050293 11.06738281 39.53686523 C11.35452148 40.68485596 11.64166016 41.83284668 11.9375 43.015625 C12.19370117 44.0363208 12.44990234 45.0570166 12.71386719 46.10864258 C14.64869501 54.54245374 14.64869501 54.54245374 13.390625 57.05859375 C11.43125916 57.6836853 11.43125916 57.6836853 8.75756836 58.22802734 C7.7193544 58.44238434 6.68114044 58.65674133 5.61146545 58.87759399 C3.84505959 59.22629044 3.84505959 59.22629044 2.04296875 59.58203125 C0.78129379 59.83681244 -0.48038116 60.09159363 -1.7802887 60.35409546 C-22.34249603 64.47791643 -42.98121031 68.22640134 -63.60162354 72.04510498 C-68.20393545 72.89802515 -72.8057747 73.75347899 -77.40759182 74.6090641 C-101.98077768 79.17767312 -101.98077768 79.17767312 -111.90597534 81.00469971 C-115.85517763 81.73197756 -119.80185354 82.47162172 -123.74758911 83.21746826 C-125.73152882 83.58827295 -127.71548612 83.95898349 -129.69946289 84.32958984 C-130.6082466 84.50368692 -131.51703032 84.677784 -132.45335293 84.85715675 C-136.90465679 85.68281775 -141.0577449 86.26520357 -145.609375 86.05859375 C-148.51162125 76.08975594 -151.41399222 66.11912001 -153.984375 56.05859375 C-154.30148437 54.82109375 -154.61859375 53.58359375 -154.9453125 52.30859375 C-155.53225813 49.43601279 -155.75297192 46.97471588 -155.609375 44.05859375 C-150.83239434 41.9156325 -146.08525796 40.19730044 -141.04003906 38.78466797 C-140.31337791 38.57713111 -139.58671677 38.36959425 -138.83803558 38.15576839 C-136.4349081 37.47057521 -134.02997726 36.7919505 -131.625 36.11328125 C-129.9108682 35.62581095 -128.19686133 35.13790117 -126.48297119 34.64958191 C-122.83647323 33.6115126 -119.18919844 32.57623836 -115.54125977 31.54324341 C-109.8432917 29.92969517 -104.14703625 28.31016563 -98.45117188 26.68920898 C-96.5383305 26.14488072 -94.6254887 25.60055394 -92.71264648 25.05622864 C-91.76537689 24.78665659 -90.8181073 24.51708454 -89.84213257 24.23934364 C-86.96397577 23.42051675 -84.08564589 22.60230081 -81.20727539 21.78422546 C-62.9024013 16.58053168 -44.61598608 11.31378438 -26.33410645 6.02996826 C-23.96131149 5.34422901 -21.58845144 4.65871495 -19.21551514 3.97346497 C-17.1144421 3.36665144 -15.01355634 2.75918893 -12.91290283 2.15092468 C-11.99998474 1.88721573 -11.08706665 1.62350677 -10.14648438 1.35180664 C-9.36059937 1.12441299 -8.57471436 0.89701935 -7.76501465 0.66273499 C-7.05365356 0.46336838 -6.34229248 0.26400177 -5.609375 0.05859375 C-4.88899048 -0.15249527 -4.16860596 -0.36358429 -3.4263916 -0.58106995 C-1.609375 -0.94140625 -1.609375 -0.94140625 0 0 Z " fill="#010101" transform="translate(781.609375,134.94140625)"/>
<path d="M0 0 C-0.33 0.66 -0.66 1.32 -1 2 C-0.44955947 4.46613951 0.17051595 6.84958952 0.87109375 9.2734375 C1.0722731 9.99359039 1.27345245 10.71374329 1.48072815 11.45571899 C2.12619826 13.76411766 2.78100712 16.06971385 3.4375 18.375 C4.08973199 20.67331839 4.73978934 22.97215416 5.38356018 25.27285767 C5.78464224 26.70559477 6.1906579 28.13696209 6.60215759 29.56674194 C7.533998 32.88903122 8 35.51209875 8 39 C7.27409668 39.14099121 6.54819336 39.28198242 5.80029297 39.42724609 C2.49104766 40.07239834 -0.81697114 40.72364034 -4.125 41.375 C-5.83816406 41.70757812 -5.83816406 41.70757812 -7.5859375 42.046875 C-8.69453125 42.26601562 -9.803125 42.48515625 -10.9453125 42.7109375 C-11.96125488 42.90993652 -12.97719727 43.10893555 -14.02392578 43.31396484 C-16.99933395 43.93337406 -16.99933395 43.93337406 -19.75341797 45.01806641 C-23.32537583 46.09841041 -26.634528 46.41359312 -30.33822632 46.73132324 C-34.76146495 47.1778005 -39.09560803 48.04443946 -43.45703125 48.890625 C-44.43117477 49.07571121 -45.4053183 49.26079742 -46.40898132 49.45149231 C-48.47920841 49.84505483 -50.54909295 50.24042302 -52.61865234 50.63748169 C-57.99005299 51.66761262 -63.36409453 52.6837381 -68.73828125 53.69921875 C-69.79512115 53.89909897 -70.85196106 54.09897919 -71.94082642 54.30491638 C-84.6008812 56.69123599 -97.29175719 58.88576896 -110 61 C-112.2129655 54.78235327 -113.9052697 48.5837804 -115.25 42.125 C-115.435625 41.28453125 -115.62125 40.4440625 -115.8125 39.578125 C-115.98265625 38.77117187 -116.1528125 37.96421875 -116.328125 37.1328125 C-116.4818457 36.40980957 -116.63556641 35.68680664 -116.79394531 34.94189453 C-117 33 -117 33 -116 30 C-113.70283173 29.05721591 -111.54217814 28.32893381 -109.1640625 27.65625 C-108.45069733 27.44440063 -107.73733215 27.23255127 -107.00234985 27.01428223 C-104.67227921 26.32792675 -102.33712815 25.66189674 -100 25 C-99.24005737 24.78263184 -98.48011475 24.56526367 -97.69714355 24.34130859 C-92.81769586 22.94814108 -87.93000067 21.58605813 -83.03860474 20.23550415 C-78.37448803 18.94759639 -73.71274488 17.65114445 -69.05078125 16.35546875 C-68.08001144 16.08586838 -67.10924164 15.81626801 -66.10905457 15.53849792 C-52.56819846 11.7740155 -39.04843867 7.93456562 -25.52685547 4.1015625 C-24.5828035 3.8341777 -23.63875153 3.56679291 -22.66609192 3.29130554 C-20.90005159 2.79107003 -19.13416261 2.29029974 -17.36845398 1.78889465 C-16.58501114 1.56698959 -15.8015683 1.34508453 -14.99438477 1.11645508 C-14.31577896 0.92392654 -13.63717316 0.73139801 -12.93800354 0.53303528 C-12.29846237 0.35713364 -11.6589212 0.18123199 -11 0 C-10.33495956 -0.19705032 -9.66991913 -0.39410065 -8.98472595 -0.59712219 C-5.89894682 -1.22350183 -3.06999049 -0.53134451 0 0 Z " fill="#010101" transform="translate(622,183)"/>
<path d="M0 0 C2.98799166 6.72535107 4.59998415 13.84161811 6.35546875 20.96875 C6.66196854 22.20363159 6.96846832 23.43851318 7.28425598 24.71081543 C7.92798328 27.31231585 8.5695183 29.91425 9.20776367 32.51708984 C10.02186505 35.83447406 10.84890573 39.14848128 11.67931652 42.46181488 C12.47562368 45.64955115 13.25845812 48.84059365 14.04296875 52.03125 C14.3397905 53.2116687 14.63661224 54.3920874 14.94242859 55.60827637 C16.37884265 61.52552933 17.57834554 66.90419298 17 73 C12.89726992 76.72975462 7.12860313 77.71345727 1.75 78.4375 C-1 78 -1 78 -2.57592773 75.84057617 C-4.04607527 72.90809433 -4.82818275 70.31139736 -5.53515625 67.11328125 C-5.78716797 66.01048828 -6.03917969 64.90769531 -6.29882812 63.77148438 C-6.55083984 62.63001953 -6.80285156 61.48855469 -7.0625 60.3125 C-7.56761854 58.03628571 -8.07902599 55.761455 -8.59765625 53.48828125 C-8.93035522 51.98068237 -8.93035522 51.98068237 -9.26977539 50.44262695 C-9.83456755 47.84880073 -9.83456755 47.84880073 -12 46 C-12.02147478 43.66676549 -12.01790916 41.3332646 -12 39 C-12.43917535 36.6289203 -12.95349595 34.27086118 -13.53125 31.9296875 C-13.76430847 30.96350998 -13.76430847 30.96350998 -14.0020752 29.97781372 C-14.49388857 27.94162855 -14.99593289 25.90818343 -15.5 23.875 C-16.00324762 21.83450702 -16.5040251 19.79353979 -16.9979248 17.75076294 C-17.44507913 15.90252698 -17.90100736 14.05642022 -18.35742188 12.21044922 C-18.93679713 9.31577423 -19.33892385 6.92936278 -19 4 C-13.53716176 -0.6633985 -6.64933555 -3.92915282 0 0 Z " fill="#030303" transform="translate(806,120)"/>
<path d="M0 0 C4.81928548 0.78760894 9.53567709 0.56814398 14.40429688 0.43164062 C20.09936239 0.34618951 20.09936239 0.34618951 23.41796875 2.55859375 C23.08796875 4.20859375 22.75796875 5.85859375 22.41796875 7.55859375 C19.77796875 7.55859375 17.13796875 7.55859375 14.41796875 7.55859375 C14.66546875 8.34234375 14.91296875 9.12609375 15.16796875 9.93359375 C15.73394081 18.14018863 10.95289793 24.6962573 6.1015625 30.94140625 C4.41796875 32.55859375 4.41796875 32.55859375 1.41796875 32.55859375 C0.24234375 33.05359375 -0.93328125 33.54859375 -2.14453125 34.05859375 C-7.0557656 35.7742733 -11.74841052 35.86286736 -16.89453125 35.87109375 C-17.68351807 35.87625 -18.47250488 35.88140625 -19.28540039 35.88671875 C-24.02090285 35.83004856 -27.39586806 35.55465579 -31.01953125 32.24609375 C-31.53515625 31.68921875 -32.05078125 31.13234375 -32.58203125 30.55859375 C-33.36578125 29.83671875 -34.14953125 29.11484375 -34.95703125 28.37109375 C-40.56007566 22.36783189 -43.32436446 16.66772888 -44.58203125 8.55859375 C-45.90203125 8.22859375 -47.22203125 7.89859375 -48.58203125 7.55859375 C-49.70703125 3.80859375 -49.70703125 3.80859375 -48.58203125 1.55859375 C-39.73330113 -0.0484401 -30.60722533 0.48247745 -21.64453125 0.55859375 C-18.46875369 0.58515077 -15.29303381 0.60511668 -12.1171875 0.62109375 C-11.39016129 0.62939209 -10.66313507 0.63769043 -9.91407776 0.64624023 C-6.39722582 0.66353956 -3.28382458 -0.56138 0 0 Z M-39.58203125 7.55859375 C-39.58203125 7.88859375 -39.58203125 8.21859375 -39.58203125 8.55859375 C-37.60203125 8.55859375 -35.62203125 8.55859375 -33.58203125 8.55859375 C-33.58203125 8.22859375 -33.58203125 7.89859375 -33.58203125 7.55859375 C-35.56203125 7.55859375 -37.54203125 7.55859375 -39.58203125 7.55859375 Z M-12.58203125 7.55859375 C-12.58203125 8.21859375 -12.58203125 8.87859375 -12.58203125 9.55859375 C-11.59203125 9.22859375 -10.60203125 8.89859375 -9.58203125 8.55859375 C-10.57203125 8.22859375 -11.56203125 7.89859375 -12.58203125 7.55859375 Z M-7.58203125 7.55859375 C-7.91203125 8.21859375 -8.24203125 8.87859375 -8.58203125 9.55859375 C-5.94203125 9.22859375 -3.30203125 8.89859375 -0.58203125 8.55859375 C-0.58203125 8.22859375 -0.58203125 7.89859375 -0.58203125 7.55859375 C-2.89203125 7.55859375 -5.20203125 7.55859375 -7.58203125 7.55859375 Z M3.41796875 7.55859375 C3.41796875 8.21859375 3.41796875 8.87859375 3.41796875 9.55859375 C6.38796875 10.05359375 6.38796875 10.05359375 9.41796875 10.55859375 C9.41796875 9.56859375 9.41796875 8.57859375 9.41796875 7.55859375 C7.43796875 7.55859375 5.45796875 7.55859375 3.41796875 7.55859375 Z M-38.58203125 9.55859375 C-38.58203125 9.88859375 -38.58203125 10.21859375 -38.58203125 10.55859375 C-36.93203125 10.55859375 -35.28203125 10.55859375 -33.58203125 10.55859375 C-33.58203125 10.22859375 -33.58203125 9.89859375 -33.58203125 9.55859375 C-35.23203125 9.55859375 -36.88203125 9.55859375 -38.58203125 9.55859375 Z M5.41796875 11.55859375 C4.98484375 12.67234375 4.98484375 12.67234375 4.54296875 13.80859375 C4.17171875 14.71609375 3.80046875 15.62359375 3.41796875 16.55859375 C3.03511719 17.55246094 3.03511719 17.55246094 2.64453125 18.56640625 C1.03579901 21.17931531 -0.5720424 21.88723535 -3.33203125 23.18359375 C-4.22148438 23.60253906 -5.1109375 24.02148438 -6.02734375 24.453125 C-8.83370776 25.66749964 -11.64408953 26.70813694 -14.58203125 27.55859375 C-11.8674444 29.83327021 -11.8674444 29.83327021 -9.34765625 29.30859375 C-1.82947504 27.06714842 3.22612327 24.16453309 7.35546875 17.37109375 C8.59466903 14.5919416 8.59466903 14.5919416 8.41796875 11.55859375 C7.42796875 11.55859375 6.43796875 11.55859375 5.41796875 11.55859375 Z M-35.58203125 12.55859375 C-35.91203125 13.21859375 -36.24203125 13.87859375 -36.58203125 14.55859375 C-35.73549106 16.5228409 -35.73549106 16.5228409 -34.39453125 18.55859375 C-33.96785156 19.25984375 -33.54117188 19.96109375 -33.1015625 20.68359375 C-31.42997952 22.74621542 -30.01502869 23.55830358 -27.58203125 24.55859375 C-27.58203125 21.01149437 -28.15965803 20.54079184 -30.45703125 17.99609375 C-30.99070312 17.39667969 -31.524375 16.79726563 -32.07421875 16.1796875 C-33.21874779 14.94917053 -34.39373021 13.74689479 -35.58203125 12.55859375 Z M-26.58203125 23.55859375 C-26.58203125 24.54859375 -26.58203125 25.53859375 -26.58203125 26.55859375 C-25.26203125 26.88859375 -23.94203125 27.21859375 -22.58203125 27.55859375 C-22.58203125 26.56859375 -22.58203125 25.57859375 -22.58203125 24.55859375 C-23.90203125 24.22859375 -25.22203125 23.89859375 -26.58203125 23.55859375 Z M-20.58203125 25.55859375 C-20.91203125 26.54859375 -21.24203125 27.53859375 -21.58203125 28.55859375 C-19.60203125 28.55859375 -17.62203125 28.55859375 -15.58203125 28.55859375 C-15.25203125 27.89859375 -14.92203125 27.23859375 -14.58203125 26.55859375 C-17.55203125 26.06359375 -17.55203125 26.06359375 -20.58203125 25.55859375 Z " fill="#080808" transform="translate(636.58203125,268.44140625)"/>
<path d="M0 0 C0.53113403 0.99422974 0.53113403 0.99422974 1.07299805 2.00854492 C4.79047263 8.9036169 8.71954714 15.63449448 12.8125 22.3125 C13.42923584 23.32231934 14.04597168 24.33213867 14.68139648 25.37255859 C18.58704617 31.74856621 22.57312316 38.06068784 26.64453125 44.33203125 C29.73809335 49.1221953 32.74282645 53.96781996 35.75 58.8125 C36.29342041 59.68471191 36.83684082 60.55692383 37.39672852 61.45556641 C39.95037132 65.57956406 42.46599456 69.72445256 44.890625 73.92578125 C45.29829102 74.63001221 45.70595703 75.33424316 46.12597656 76.05981445 C47 78 47 78 47 81.375 C45.95095767 84.12873611 45.4554908 85.39123016 43 87 C40.1875 88 40.1875 88 37 88 C31.98697375 84.97129664 29.64895622 81.09652853 26.79296875 76.08203125 C24.68293816 72.45498521 22.41817065 68.95053086 20.125 65.4375 C13.34808439 55.016036 6.6476676 44.54622591 -0.03857422 34.06640625 C-1.91500234 31.13288157 -3.80186126 28.20633724 -5.69140625 25.28125 C-6.79447077 23.56262831 -7.89734701 21.84388576 -9 20.125 C-9.51038818 19.3407666 -10.02077637 18.5565332 -10.54663086 17.74853516 C-11.00561768 17.02972168 -11.46460449 16.3109082 -11.9375 15.5703125 C-12.53884766 14.63856201 -12.53884766 14.63856201 -13.15234375 13.68798828 C-14 12 -14 12 -14 9 C-12.576875 8.319375 -12.576875 8.319375 -11.125 7.625 C-7.99686321 6.19761746 -7.99686321 6.19761746 -6 4 C-6.66 3.34 -7.32 2.68 -8 2 C-7.38125 1.855625 -6.7625 1.71125 -6.125 1.5625 C-0.22222222 0 -0.22222222 0 0 0 Z " fill="#030303" transform="translate(652,295)"/>
<path d="M0 0 C0.763125 0.804375 1.52625 1.60875 2.3125 2.4375 C4.79430898 5.16799024 4.79430898 5.16799024 8 6 C8 6.66 8 7.32 8 8 C10.475 8.495 10.475 8.495 13 9 C11.73308528 12.36882461 10.28885203 15.36345998 8.3828125 18.4140625 C7.86468994 19.24736084 7.34656738 20.08065918 6.81274414 20.93920898 C6.25578857 21.82552002 5.69883301 22.71183105 5.125 23.625 C4.54419678 24.55578369 3.96339355 25.48656738 3.36499023 26.44555664 C1.58148053 29.30009213 -0.2082222 32.15064847 -2 35 C-2.77174561 36.22904053 -2.77174561 36.22904053 -3.55908203 37.48291016 C-7.02453407 42.99805729 -10.5096432 48.50059086 -14 54 C-14.59022949 54.93118652 -15.18045898 55.86237305 -15.78857422 56.82177734 C-17.64937616 59.75703762 -19.51189218 62.69120289 -21.375 65.625 C-21.94597412 66.52532959 -22.51694824 67.42565918 -23.10522461 68.35327148 C-33.15202821 84.15202821 -33.15202821 84.15202821 -36 87 C-43.03801396 87.55857254 -43.03801396 87.55857254 -45.9375 85.875 C-47.46549203 83.17854348 -47.7938881 81.10272017 -48 78 C-46.62890625 74.80859375 -46.62890625 74.80859375 -44.5625 71.4375 C-44.19922607 70.83470215 -43.83595215 70.2319043 -43.46166992 69.61083984 C-42.32340399 67.73048239 -41.16278925 65.8652669 -40 64 C-39.28500707 62.82770683 -38.57142197 61.65455362 -37.859375 60.48046875 C-35.41347285 56.47086962 -32.94021632 52.48014252 -30.421875 48.515625 C-28.63118997 45.69581065 -27.06111361 43.18334083 -26 40 C-24.68152188 38.32155697 -23.3462775 36.65622838 -22 35 C-20.83021879 33.23428624 -19.68911325 31.44931046 -18.57421875 29.6484375 C-17.94193359 28.63136719 -17.30964844 27.61429687 -16.65820312 26.56640625 C-15.68270508 24.98666016 -15.68270508 24.98666016 -14.6875 23.375 C-13.40019152 21.29919883 -12.11243319 19.22367657 -10.82421875 17.1484375 C-10.19563965 16.13491211 -9.56706055 15.12138672 -8.91943359 14.07714844 C-5.97932181 9.36369525 -2.99358864 4.67961949 0 0 Z " fill="#030303" transform="translate(595,295)"/>
<path d="M0 0 C0.33 12.54 0.66 25.08 1 38 C-10.88 38 -22.76 38 -35 38 C-35 38.99 -35 39.98 -35 41 C-35.99 40.67 -36.98 40.34 -38 40 C-39.55977064 36.88045872 -39.12104126 33.57040616 -39.09765625 30.1484375 C-39.0962413 29.37440582 -39.09482635 28.60037415 -39.09336853 27.80288696 C-39.08776403 25.32688558 -39.07521083 22.85097412 -39.0625 20.375 C-39.05748558 18.69791797 -39.05292257 17.02083453 -39.04882812 15.34375 C-39.03779315 11.22913194 -39.02052554 7.11458122 -39 3 C-33.92892091 2.4036037 -28.85694376 1.81584256 -23.78393555 1.23608398 C-22.05807467 1.03761404 -20.3324838 0.83678137 -18.60717773 0.63354492 C-16.12811288 0.34193217 -13.6482032 0.05881253 -11.16796875 -0.22265625 C-10.39599655 -0.31531265 -9.62402435 -0.40796906 -8.82865906 -0.50343323 C-5.49581182 -0.87421542 -3.22199659 -1.07399886 0 0 Z M-23.75 15.0625 C-25.6969885 18.08033217 -25.37456901 20.5040226 -25 24 C-24.01951062 26.06402685 -24.01951062 26.06402685 -22 27 C-18.77909921 27.4026126 -16.8664301 27.6274149 -14.1875 25.6875 C-12.80544154 23.89523775 -12.80544154 23.89523775 -12 21 C-13.37492804 17.8331162 -13.37492804 17.8331162 -15 15 C-15.99 15.495 -15.99 15.495 -17 16 C-17.33 15.34 -17.66 14.68 -18 14 C-21.77135706 13.65401458 -21.77135706 13.65401458 -23.75 15.0625 Z " fill="#030302" transform="translate(643,227)"/>
<path d="M0 0 C4.95 0 9.9 0 15 0 C15.067814 9.17088778 15.12283807 18.34160864 15.15543652 27.51269054 C15.17108322 31.77133192 15.19230318 36.02979266 15.22631836 40.28833008 C15.25894752 44.39913518 15.27686051 48.50976668 15.28463173 52.6206913 C15.29016887 54.18796839 15.30098165 55.75523613 15.31719017 57.32243919 C15.33901228 59.52009893 15.34196501 61.71704403 15.34057617 63.91479492 C15.34723801 65.16499924 15.35389984 66.41520355 15.36076355 67.70329285 C14.96697929 71.30174779 14.2534266 73.18478517 12 76 C8.46794052 76.96328895 6.11810418 77.38250933 2.625 76.1875 C0.53230778 74.65822492 0.08440852 73.54066362 -0.31201172 71.00146484 C-1.22786515 60.94181918 -1.15078387 50.87653532 -1.13037109 40.78320312 C-1.12502427 37.63927359 -1.13033465 34.49548763 -1.13671875 31.3515625 C-1.13983411 20.84220113 -0.93330708 10.4737795 0 0 Z " fill="#030303" transform="translate(616,307)"/>
<path d="M0 0 C3.69830011 2.98774708 5.58573593 5.92479854 6.9375 10.5 C7.25528831 16.00833066 6.26636234 20.77456518 3.5 25.5625 C-0.6507575 29.38556612 -4.77997248 31.45071035 -10.375 32.25 C-16.16468169 31.42290262 -20.33768958 29.36417594 -24.375 25.125 C-25.875 22.75 -25.875 22.75 -25.875 20.75 C-26.535 20.42 -27.195 20.09 -27.875 19.75 C-28.4234875 13.44239379 -27.06571899 8.24771114 -23.875 2.75 C-17.32697408 -3.91956701 -7.91584106 -5.3444532 0 0 Z " fill="#020303" transform="translate(366.875,264.25)"/>
<path d="M0 0 C0.33 0.66 0.66 1.32 1 2 C1.721875 2.061875 2.44375 2.12375 3.1875 2.1875 C7.50913489 3.4359723 9.63406604 6.27253801 12 10 C13.43510215 14.38503436 13.23317486 17.07514581 11.375 21.1875 C8.5201955 26.1979732 5.82499187 28.49139571 0.1875 30.0625 C-4.10754308 30.40415115 -6.85518918 28.98458356 -10.296875 26.51171875 C-13.47877251 23.68741982 -14.84487448 21.12134147 -15.15625 16.86328125 C-14.94250824 11.61770216 -13.44633595 8.23158953 -9.83203125 4.44140625 C-6.78650462 2.04524564 -3.70229074 1.08515418 0 0 Z " fill="#040404" transform="translate(419,256)"/>
<path d="M0 0 C1.02913025 2.42877055 1.67131692 4.43876228 2.23828125 6.9765625 C2.49402168 8.00443375 2.49402168 8.00443375 2.75492859 9.05307007 C3.29407703 11.23940804 3.80350986 13.4314663 4.3125 15.625 C4.6731935 17.1098468 5.03580166 18.59422989 5.40039062 20.078125 C6.28922058 23.71374564 7.15147093 27.35477223 8 31 C2.79981505 35.35691171 -0.22732836 36.12778626 -7 36 C-9.81414111 29.96362482 -11.60350356 23.80311071 -13.3125 17.375 C-13.7465918 15.83972656 -13.7465918 15.83972656 -14.18945312 14.2734375 C-14.45306641 13.2834375 -14.71667969 12.2934375 -14.98828125 11.2734375 C-15.23102783 10.38060059 -15.47377441 9.48776367 -15.72387695 8.56787109 C-16.05931443 5.44839153 -15.45532515 3.75297013 -14 1 C-12.01171875 -0.21484375 -12.01171875 -0.21484375 -9.6875 -0.9375 C-8.92824219 -1.19402344 -8.16898437 -1.45054687 -7.38671875 -1.71484375 C-4.20327497 -2.09518973 -2.77532541 -1.61998263 0 0 Z " fill="#050505" transform="translate(500,214)"/>
<path d="M0 0 C17.04029304 0 17.04029304 0 24 4 C26.30467552 6.88084439 26.96940098 8.75957911 27.4375 12.4375 C26.909287 16.73866297 25.862816 18.76049769 23 22 C18.01110651 24.23147796 13.46859101 24.24181675 8.125 24.125 C5.44375 24.08375 2.7625 24.0425 0 24 C0 16.08 0 8.16 0 0 Z " fill="#010101" transform="translate(470,585)"/>
<path d="M0 0 C2.64 0.33 5.28 0.66 8 1 C9.37983002 1.15828147 10.75994893 1.31412056 12.140625 1.46484375 C13.51041667 1.62239583 14.88020833 1.77994792 16.25 1.9375 C17.29027344 2.04868164 17.29027344 2.04868164 18.3515625 2.16210938 C26.48149505 3.11994626 26.48149505 3.11994626 29.3125 6.625 C30.35846092 10.23831955 30.13986058 13.41863158 29 17 C23.63846259 22.80833219 16.57394565 22.22609509 9.1875 22.5625 C6.155625 22.706875 3.12375 22.85125 0 23 C0 15.41 0 7.82 0 0 Z " fill="#010101" transform="translate(470,619)"/>
<path d="M0 0 C1.8572168 0.07831055 1.8572168 0.07831055 3.75195312 0.15820312 C6.77247908 0.28648801 9.79255141 0.42137493 12.8125 0.5625 C12.92155846 7.91506948 12.92155846 7.91506948 10.8125 11.5625 C4.5885343 15.58977192 -2.1927086 17.63647762 -9.5625 17.5 C-15.42061144 15.98497118 -20.1904119 12.07772915 -24.1875 7.5625 C-24.1875 6.9025 -24.1875 6.2425 -24.1875 5.5625 C-24.8475 5.2325 -25.5075 4.9025 -26.1875 4.5625 C-25.8575 3.2425 -25.5275 1.9225 -25.1875 0.5625 C-16.72479623 -0.47624733 -8.50564917 -0.39891724 0 0 Z " fill="#020303" transform="translate(628.1875,278.4375)"/>
<path d="M0 0 C4.81928548 0.78760894 9.53567709 0.56814398 14.40429688 0.43164062 C20.09936239 0.34618951 20.09936239 0.34618951 23.41796875 2.55859375 C23.08796875 4.20859375 22.75796875 5.85859375 22.41796875 7.55859375 C-1.01203125 7.22859375 -24.44203125 6.89859375 -48.58203125 6.55859375 C-48.91203125 5.56859375 -49.24203125 4.57859375 -49.58203125 3.55859375 C-49.25203125 2.89859375 -48.92203125 2.23859375 -48.58203125 1.55859375 C-39.73330113 -0.0484401 -30.60722533 0.48247745 -21.64453125 0.55859375 C-18.46875369 0.58515077 -15.29303381 0.60511668 -12.1171875 0.62109375 C-11.39016129 0.62939209 -10.66313507 0.63769043 -9.91407776 0.64624023 C-6.39722582 0.66353956 -3.28382458 -0.56138 0 0 Z " fill="#050505" transform="translate(636.58203125,268.44140625)"/>
<path d="M0 0 C7.77121047 -0.02316284 15.54241286 -0.04093523 23.31364918 -0.05181217 C26.92208385 -0.05703236 30.53049492 -0.06411436 34.13891602 -0.07543945 C37.62076233 -0.086299 41.10258592 -0.09228336 44.58444786 -0.09487724 C46.56035995 -0.0976261 48.5362629 -0.10543327 50.51216125 -0.11329651 C51.71317978 -0.11337204 52.9141983 -0.11344757 54.15161133 -0.11352539 C55.21084305 -0.115746 56.27007477 -0.11796661 57.36140442 -0.12025452 C60 0 60 0 63 1 C63.495 3.97 63.495 3.97 64 7 C63.505 6.01 63.505 6.01 63 5 C61.6078125 5.2784375 61.6078125 5.2784375 60.1875 5.5625 C57 6 57 6 54 5 C54.495 6.485 54.495 6.485 55 8 C54.34 8 53.68 8 53 8 C52.34 6.68 51.68 5.36 51 4 C50.31897217 4 49.63794434 4 48.9362793 4 C24.84810127 4 24.84810127 4 20.875 3.96484375 C19.25000101 3.95555046 17.62500096 3.94644262 16 3.9375 C15.18015625 3.92912109 14.3603125 3.92074219 13.515625 3.91210938 C12.72671875 3.90888672 11.9378125 3.90566406 11.125 3.90234375 C10.40570312 3.89710693 9.68640625 3.89187012 8.9453125 3.88647461 C6.78195315 3.92800394 6.78195315 3.92800394 4 5 C4 4.01 4 3.02 4 2 C2.68 1.34 1.36 0.68 0 0 Z M9 1 C9 1.33 9 1.66 9 2 C10.98 2 12.96 2 15 2 C15 1.67 15 1.34 15 1 C13.02 1 11.04 1 9 1 Z M36 1 C36 1.66 36 2.32 36 3 C36.99 2.67 37.98 2.34 39 2 C38.01 1.67 37.02 1.34 36 1 Z M41 1 C40.67 1.66 40.34 2.32 40 3 C42.64 2.67 45.28 2.34 48 2 C48 1.67 48 1.34 48 1 C45.69 1 43.38 1 41 1 Z M52 1 C52 1.66 52 2.32 52 3 C54.97 3.495 54.97 3.495 58 4 C58 3.01 58 2.02 58 1 C56.02 1 54.04 1 52 1 Z " fill="#222423" transform="translate(588,275)"/>
<path d="M0 0 C2.31 0 4.62 0 7 0 C7 0.33 7 0.66 7 1 C4.69 1 2.38 1 0 1 C0 0.67 0 0.34 0 0 Z " fill="#0A0A09" transform="translate(680,616)"/>
<path d="M0 0 C1.98 0 3.96 0 6 0 C6 0.33 6 0.66 6 1 C4.02 1 2.04 1 0 1 C0 0.67 0 0.34 0 0 Z " fill="#0C0B09" transform="translate(688,652)"/>
<path d="M0 0 C0.66 0 1.32 0 2 0 C1.67 1.32 1.34 2.64 1 4 C0.67 2.68 0.34 1.36 0 0 Z " fill="#2F2F30" transform="translate(660,270)"/>
<path d="M0 0 C4 1 4 1 4 1 Z " fill="#0C0C0C" transform="translate(600,586)"/>
<path d="M0 0 C0.99 0.495 0.99 0.495 2 1 C1.67 1.66 1.34 2.32 1 3 C0.67 2.01 0.34 1.02 0 0 Z " fill="#282828" transform="translate(592,288)"/>
<path d="" fill="#0B0B0A" transform="translate(0,0)"/>
<path d="M0 0 C3 1 3 1 3 1 Z " fill="#0B0908" transform="translate(688,616)"/>
<path d="" fill="#2C2D2D" transform="translate(0,0)"/>
<path d="M0 0 C3 1 3 1 3 1 Z " fill="#0D0C0C" transform="translate(685,575)"/>
<path d="M0 0 C3 1 3 1 3 1 Z " fill="#0D0B0D" transform="translate(681,575)"/>
<path d="" fill="#202021" transform="translate(0,0)"/>
<path d="M0 0 C3 1 3 1 3 1 Z " fill="#242425" transform="translate(879,480)"/>
<path d="" fill="#242625" transform="translate(0,0)"/>
<path d="M0 0 C0.66 0.66 1.32 1.32 2 2 C1.34 2 0.68 2 0 2 C0 1.34 0 0.68 0 0 Z " fill="#252725" transform="translate(597,294)"/>
<path d="M0 0 C0.33 0.66 0.66 1.32 1 2 C0.34 1.67 -0.32 1.34 -1 1 C-0.67 0.67 -0.34 0.34 0 0 Z " fill="#292829" transform="translate(409,284)"/>
<path d="" fill="#222223" transform="translate(0,0)"/>
<path d="M0 0 C0.33 0.66 0.66 1.32 1 2 C0.34 1.67 -0.32 1.34 -1 1 C-0.67 0.67 -0.34 0.34 0 0 Z " fill="#1B1A1A" transform="translate(628,245)"/>
<path d="" fill="#1B1D1C" transform="translate(0,0)"/>
<path d="M0 0 C3 1 3 1 3 1 Z " fill="#232323" transform="translate(352,229)"/>
<path d="M0 0 C3 1 3 1 3 1 Z " fill="#242624" transform="translate(544,200)"/>
<path d="" fill="#222424" transform="translate(0,0)"/>
<path d="" fill="#1D1E1E" transform="translate(0,0)"/>
<path d="" fill="#111112" transform="translate(0,0)"/>
<path d="M0 0 C2 1 2 1 2 1 Z " fill="#191A17" transform="translate(786,713)"/>
<path d="" fill="#2C2C2D" transform="translate(0,0)"/>
<path d="M0 0 C2 1 2 1 2 1 Z " fill="#0D0C0B" transform="translate(742,650)"/>
<path d="" fill="#090B0A" transform="translate(0,0)"/>
<path d="M0 0 C2 1 2 1 2 1 Z " fill="#0F0E0D" transform="translate(760,616)"/>
<path d="M0 0 C2 1 2 1 2 1 Z " fill="#0A0B0A" transform="translate(699,616)"/>
<path d="M0 0 C2 1 2 1 2 1 Z " fill="#0A0808" transform="translate(696,616)"/>
<path d="M0 0 C2 1 2 1 2 1 Z " fill="#0B0A0A" transform="translate(693,616)"/>
<path d="M0 0 C2 1 2 1 2 1 Z " fill="#0F0E0D" transform="translate(758,610)"/>
<path d="" fill="#0A0B0B" transform="translate(0,0)"/>
<path d="" fill="#0C0D0C" transform="translate(0,0)"/>
<path d="M0 0 C2 1 2 1 2 1 Z " fill="#0C0E0C" transform="translate(482,584)"/>
<path d="" fill="#11100F" transform="translate(0,0)"/>
<path d="" fill="#0D0D0B" transform="translate(0,0)"/>
<path d="M0 0 C2 1 2 1 2 1 Z " fill="#1D1F1C" transform="translate(561,523)"/>
<path d="M0 0 C2 1 2 1 2 1 Z " fill="#1D1D1D" transform="translate(692,511)"/>
<path d="" fill="#1F1F20" transform="translate(0,0)"/>
<path d="M0 0 C2 1 2 1 2 1 Z " fill="#1F1F1E" transform="translate(769,509)"/>
<path d="M0 0 C2 1 2 1 2 1 Z " fill="#212221" transform="translate(462,507)"/>
<path d="M0 0 C2 1 2 1 2 1 Z " fill="#1F1F20" transform="translate(432,499)"/>
<path d="M0 0 C2 1 2 1 2 1 Z " fill="#1C1B1D" transform="translate(642,496)"/>
<path d="" fill="#222221" transform="translate(0,0)"/>
<path d="" fill="#212122" transform="translate(0,0)"/>
<path d="" fill="#2F302F" transform="translate(0,0)"/>
<path d="M0 0 C2 1 2 1 2 1 Z " fill="#282829" transform="translate(688,448)"/>
<path d="" fill="#2D2F2D" transform="translate(0,0)"/>
<path d="M0 0 C2 1 2 1 2 1 Z " fill="#282A27" transform="translate(668,358)"/>
<path d="" fill="#2F312F" transform="translate(0,0)"/>
<path d="M0 0 C2 1 2 1 2 1 Z " fill="#2C2B2B" transform="translate(312,311)"/>
<path d="M0 0 C2 1 2 1 2 1 Z " fill="#333133" transform="translate(408,309)"/>
<path d="M0 0 C2 1 2 1 2 1 Z " fill="#1D1C1E" transform="translate(620,305)"/>
<path d="" fill="#302E2F" transform="translate(0,0)"/>
<path d="" fill="#272826" transform="translate(0,0)"/>
<path d="" fill="#2C2E30" transform="translate(0,0)"/>
<path d="M0 0 C2 1 2 1 2 1 Z " fill="#292A29" transform="translate(589,277)"/>
<path d="" fill="#222322" transform="translate(0,0)"/>
<path d="M0 0 C2 1 2 1 2 1 Z " fill="#282829" transform="translate(584,273)"/>
<path d="" fill="#2A2B2B" transform="translate(0,0)"/>
<path d="" fill="#1E201F" transform="translate(0,0)"/>
<path d="" fill="#1B1C1B" transform="translate(0,0)"/>
<path d="M0 0 C2 1 2 1 2 1 Z " fill="#282828" transform="translate(337,232)"/>
<path d="M0 0 C2 1 2 1 2 1 Z " fill="#1C1C1E" transform="translate(635,225)"/>
<path d="" fill="#1B1B1B" transform="translate(0,0)"/>
<path d="" fill="#1B1C1C" transform="translate(0,0)"/>
<path d="M0 0 C2 1 2 1 2 1 Z " fill="#222222" transform="translate(697,211)"/>
<path d="M0 0 C2 1 2 1 2 1 Z " fill="#242122" transform="translate(628,176)"/>
<path d="" fill="#202121" transform="translate(0,0)"/>
<path d="" fill="#202022" transform="translate(0,0)"/>
<path d="M0 0 C2 1 2 1 2 1 Z " fill="#2A2A2A" transform="translate(785,129)"/>
<path d="" fill="#383939" transform="translate(0,0)"/>
<path d="" fill="#42413F" transform="translate(0,0)"/>
<path d="" fill="#3F3F3F" transform="translate(0,0)"/>
<path d="" fill="#282927" transform="translate(0,0)"/>
<path d="" fill="#282426" transform="translate(0,0)"/>
<path d="" fill="#2A2828" transform="translate(0,0)"/>
<path d="" fill="#242322" transform="translate(0,0)"/>
<path d="" fill="#232222" transform="translate(0,0)"/>
<path d="" fill="#252425" transform="translate(0,0)"/>
<path d="" fill="#252623" transform="translate(0,0)"/>
<path d="" fill="#292627" transform="translate(0,0)"/>
<path d="" fill="#212321" transform="translate(0,0)"/>
<path d="" fill="#292A2A" transform="translate(0,0)"/>
<path d="" fill="#2A2929" transform="translate(0,0)"/>
<path d="" fill="#1D1C1A" transform="translate(0,0)"/>
<path d="" fill="#242523" transform="translate(0,0)"/>
<path d="" fill="#1A1A1A" transform="translate(0,0)"/>
<path d="" fill="#2A2A27" transform="translate(0,0)"/>
<path d="" fill="#141414" transform="translate(0,0)"/>
<path d="" fill="#252728" transform="translate(0,0)"/>
<path d="" fill="#141615" transform="translate(0,0)"/>
<path d="" fill="#141215" transform="translate(0,0)"/>
<path d="" fill="#1C1C1C" transform="translate(0,0)"/>
<path d="" fill="#1A1A18" transform="translate(0,0)"/>
<path d="" fill="#151515" transform="translate(0,0)"/>
<path d="" fill="#141515" transform="translate(0,0)"/>
<path d="" fill="#10100F" transform="translate(0,0)"/>
<path d="" fill="#111111" transform="translate(0,0)"/>
<path d="" fill="#0F1010" transform="translate(0,0)"/>
<path d="" fill="#313231" transform="translate(0,0)"/>
<path d="" fill="#2D2D2F" transform="translate(0,0)"/>
<path d="" fill="#2E2E2C" transform="translate(0,0)"/>
<path d="" fill="#2F2C2E" transform="translate(0,0)"/>
<path d="" fill="#2E2F2E" transform="translate(0,0)"/>
<path d="" fill="#2E2F2E" transform="translate(0,0)"/>
<path d="" fill="#2B2E2E" transform="translate(0,0)"/>
<path d="" fill="#0C0C0C" transform="translate(0,0)"/>
<path d="" fill="#0E0F0D" transform="translate(0,0)"/>
<path d="" fill="#0E0F0F" transform="translate(0,0)"/>
<path d="" fill="#0D0D0B" transform="translate(0,0)"/>
<path d="" fill="#100F0F" transform="translate(0,0)"/>
<path d="" fill="#100E0D" transform="translate(0,0)"/>
<path d="" fill="#0C0E0E" transform="translate(0,0)"/>
<path d="" fill="#0D0D0C" transform="translate(0,0)"/>
<path d="" fill="#0E0C0D" transform="translate(0,0)"/>
<path d="" fill="#0C0C0D" transform="translate(0,0)"/>
<path d="" fill="#30302F" transform="translate(0,0)"/>
<path d="" fill="#2D2E2E" transform="translate(0,0)"/>
<path d="" fill="#14130F" transform="translate(0,0)"/>
<path d="" fill="#0B0B09" transform="translate(0,0)"/>
<path d="" fill="#313030" transform="translate(0,0)"/>
<path d="" fill="#100F0E" transform="translate(0,0)"/>
<path d="" fill="#090A0C" transform="translate(0,0)"/>
<path d="" fill="#322F30" transform="translate(0,0)"/>
<path d="" fill="#0A0B0C" transform="translate(0,0)"/>
<path d="" fill="#31312F" transform="translate(0,0)"/>
<path d="" fill="#0C0A0A" transform="translate(0,0)"/>
<path d="" fill="#0D0B09" transform="translate(0,0)"/>
<path d="" fill="#0A0A0B" transform="translate(0,0)"/>
<path d="" fill="#303231" transform="translate(0,0)"/>
<path d="" fill="#0D0D0D" transform="translate(0,0)"/>
<path d="" fill="#2C2C2C" transform="translate(0,0)"/>
<path d="" fill="#2D302F" transform="translate(0,0)"/>
<path d="" fill="#474748" transform="translate(0,0)"/>
<path d="" fill="#100F0D" transform="translate(0,0)"/>
<path d="" fill="#0C0D0C" transform="translate(0,0)"/>
<path d="" fill="#2F2F30" transform="translate(0,0)"/>
<path d="" fill="#4B4B4B" transform="translate(0,0)"/>
<path d="" fill="#28292C" transform="translate(0,0)"/>
<path d="" fill="#30302E" transform="translate(0,0)"/>
<path d="" fill="#2F2E2F" transform="translate(0,0)"/>
<path d="" fill="#2D2D2D" transform="translate(0,0)"/>
<path d="" fill="#2D2D2C" transform="translate(0,0)"/>
<path d="" fill="#0C090A" transform="translate(0,0)"/>
<path d="" fill="#2C2E2E" transform="translate(0,0)"/>
<path d="" fill="#0F0E0E" transform="translate(0,0)"/>
<path d="" fill="#0F0F0D" transform="translate(0,0)"/>
<path d="" fill="#080B09" transform="translate(0,0)"/>
<path d="" fill="#2D2D2E" transform="translate(0,0)"/>
<path d="" fill="#0D0C0E" transform="translate(0,0)"/>
<path d="" fill="#0A0A0C" transform="translate(0,0)"/>
<path d="" fill="#2B2C2C" transform="translate(0,0)"/>
<path d="" fill="#0D0D0C" transform="translate(0,0)"/>
<path d="" fill="#2C302E" transform="translate(0,0)"/>
<path d="" fill="#0E0E11" transform="translate(0,0)"/>
<path d="" fill="#0B090B" transform="translate(0,0)"/>
<path d="" fill="#0D0C0B" transform="translate(0,0)"/>
<path d="" fill="#2E2E2D" transform="translate(0,0)"/>
<path d="" fill="#0A0909" transform="translate(0,0)"/>
<path d="" fill="#090C0A" transform="translate(0,0)"/>
<path d="" fill="#2E2E2F" transform="translate(0,0)"/>
<path d="" fill="#2F302E" transform="translate(0,0)"/>
<path d="" fill="#0B0B09" transform="translate(0,0)"/>
<path d="" fill="#0A0B0B" transform="translate(0,0)"/>
<path d="" fill="#0B0B0B" transform="translate(0,0)"/>
<path d="" fill="#0D0B0C" transform="translate(0,0)"/>
<path d="" fill="#2B2E2C" transform="translate(0,0)"/>
<path d="" fill="#0A0B0B" transform="translate(0,0)"/>
<path d="" fill="#0B0B0C" transform="translate(0,0)"/>
<path d="" fill="#2D2E2D" transform="translate(0,0)"/>
<path d="" fill="#0D0C0D" transform="translate(0,0)"/>
<path d="" fill="#2D2D2B" transform="translate(0,0)"/>
<path d="" fill="#2C2E2E" transform="translate(0,0)"/>
<path d="" fill="#0E0E0E" transform="translate(0,0)"/>
<path d="" fill="#090A08" transform="translate(0,0)"/>
<path d="" fill="#0E0F0B" transform="translate(0,0)"/>
<path d="" fill="#2F2F31" transform="translate(0,0)"/>
<path d="" fill="#3E3E40" transform="translate(0,0)"/>
<path d="" fill="#0E0F0E" transform="translate(0,0)"/>
<path d="" fill="#110F11" transform="translate(0,0)"/>
<path d="" fill="#0C0C0C" transform="translate(0,0)"/>
<path d="" fill="#2E2E2E" transform="translate(0,0)"/>
<path d="" fill="#2F2D2E" transform="translate(0,0)"/>
<path d="" fill="#0D0C0C" transform="translate(0,0)"/>
<path d="" fill="#0F0F0E" transform="translate(0,0)"/>
<path d="" fill="#0E0F0D" transform="translate(0,0)"/>
<path d="" fill="#2C2B2B" transform="translate(0,0)"/>
<path d="" fill="#2E2F2D" transform="translate(0,0)"/>
<path d="" fill="#0B0D09" transform="translate(0,0)"/>
<path d="" fill="#0E0E0F" transform="translate(0,0)"/>
<path d="" fill="#0D0D0D" transform="translate(0,0)"/>
<path d="" fill="#121111" transform="translate(0,0)"/>
<path d="" fill="#0E0E0C" transform="translate(0,0)"/>
<path d="" fill="#0D0E0D" transform="translate(0,0)"/>
<path d="" fill="#292D2C" transform="translate(0,0)"/>
<path d="" fill="#2C2C2B" transform="translate(0,0)"/>
<path d="" fill="#2E2B2C" transform="translate(0,0)"/>
<path d="" fill="#2A2B2D" transform="translate(0,0)"/>
<path d="" fill="#2E2F2D" transform="translate(0,0)"/>
<path d="" fill="#0F0F0D" transform="translate(0,0)"/>
<path d="" fill="#0F0E0E" transform="translate(0,0)"/>
<path d="" fill="#0D0D0C" transform="translate(0,0)"/>
<path d="" fill="#121313" transform="translate(0,0)"/>
<path d="" fill="#2D2D2C" transform="translate(0,0)"/>
<path d="" fill="#2B2E2D" transform="translate(0,0)"/>
<path d="" fill="#2A2B2C" transform="translate(0,0)"/>
<path d="" fill="#2E2D2E" transform="translate(0,0)"/>
<path d="" fill="#262624" transform="translate(0,0)"/>
<path d="" fill="#2B2E2D" transform="translate(0,0)"/>
<path d="" fill="#2D2C2B" transform="translate(0,0)"/>
<path d="" fill="#2D302D" transform="translate(0,0)"/>
<path d="" fill="#2F3030" transform="translate(0,0)"/>
<path d="" fill="#262626" transform="translate(0,0)"/>
<path d="" fill="#2F3131" transform="translate(0,0)"/>
<path d="" fill="#303030" transform="translate(0,0)"/>
<path d="" fill="#232425" transform="translate(0,0)"/>
<path d="" fill="#242322" transform="translate(0,0)"/>
<path d="" fill="#202120" transform="translate(0,0)"/>
<path d="" fill="#201F1E" transform="translate(0,0)"/>
<path d="" fill="#212324" transform="translate(0,0)"/>
<path d="" fill="#222524" transform="translate(0,0)"/>
<path d="" fill="#2B2D2C" transform="translate(0,0)"/>
<path d="" fill="#2F2F2F" transform="translate(0,0)"/>
<path d="" fill="#1F1F1E" transform="translate(0,0)"/>
<path d="" fill="#2F2E2F" transform="translate(0,0)"/>
<path d="" fill="#2A2726" transform="translate(0,0)"/>
<path d="" fill="#1B1E1B" transform="translate(0,0)"/>
<path d="" fill="#29292A" transform="translate(0,0)"/>
<path d="" fill="#2C2F2E" transform="translate(0,0)"/>
<path d="" fill="#202221" transform="translate(0,0)"/>
<path d="" fill="#1C1C1E" transform="translate(0,0)"/>
<path d="" fill="#222222" transform="translate(0,0)"/>
<path d="" fill="#1E1E20" transform="translate(0,0)"/>
<path d="" fill="#1F201F" transform="translate(0,0)"/>
<path d="" fill="#222120" transform="translate(0,0)"/>
<path d="" fill="#212023" transform="translate(0,0)"/>
<path d="" fill="#2F3230" transform="translate(0,0)"/>
<path d="" fill="#201E20" transform="translate(0,0)"/>
<path d="" fill="#1F2020" transform="translate(0,0)"/>
<path d="" fill="#232422" transform="translate(0,0)"/>
<path d="" fill="#1F1D1F" transform="translate(0,0)"/>
<path d="" fill="#303130" transform="translate(0,0)"/>
<path d="" fill="#1D1E1B" transform="translate(0,0)"/>
<path d="" fill="#1D1E1D" transform="translate(0,0)"/>
<path d="" fill="#171719" transform="translate(0,0)"/>
<path d="" fill="#292727" transform="translate(0,0)"/>
<path d="" fill="#212322" transform="translate(0,0)"/>
<path d="" fill="#1F1E1E" transform="translate(0,0)"/>
<path d="" fill="#202223" transform="translate(0,0)"/>
<path d="" fill="#1C1719" transform="translate(0,0)"/>
<path d="" fill="#22221F" transform="translate(0,0)"/>
<path d="" fill="#1B1A18" transform="translate(0,0)"/>
<path d="" fill="#252624" transform="translate(0,0)"/>
<path d="" fill="#1F2120" transform="translate(0,0)"/>
<path d="" fill="#272626" transform="translate(0,0)"/>
<path d="" fill="#212522" transform="translate(0,0)"/>
<path d="" fill="#20201F" transform="translate(0,0)"/>
<path d="" fill="#242024" transform="translate(0,0)"/>
<path d="" fill="#222220" transform="translate(0,0)"/>
<path d="" fill="#292B2C" transform="translate(0,0)"/>
<path d="" fill="#1D1C1E" transform="translate(0,0)"/>
<path d="" fill="#1D1D1D" transform="translate(0,0)"/>
<path d="" fill="#1D1E1C" transform="translate(0,0)"/>
<path d="" fill="#211E20" transform="translate(0,0)"/>
<path d="" fill="#1C1C1B" transform="translate(0,0)"/>
<path d="" fill="#1D1E1E" transform="translate(0,0)"/>
<path d="" fill="#1E1C1C" transform="translate(0,0)"/>
<path d="" fill="#242625" transform="translate(0,0)"/>
<path d="" fill="#222225" transform="translate(0,0)"/>
<path d="" fill="#222422" transform="translate(0,0)"/>
<path d="" fill="#232422" transform="translate(0,0)"/>
<path d="" fill="#4D4F4F" transform="translate(0,0)"/>
<path d="" fill="#2A2A2B" transform="translate(0,0)"/>
<path d="" fill="#242723" transform="translate(0,0)"/>
<path d="" fill="#212123" transform="translate(0,0)"/>
<path d="" fill="#343534" transform="translate(0,0)"/>
<path d="" fill="#363636" transform="translate(0,0)"/>
<path d="" fill="#252625" transform="translate(0,0)"/>
<path d="" fill="#212422" transform="translate(0,0)"/>
<path d="" fill="#272626" transform="translate(0,0)"/>
<path d="" fill="#1D1C1E" transform="translate(0,0)"/>
<path d="" fill="#1D1D1E" transform="translate(0,0)"/>
<path d="" fill="#262626" transform="translate(0,0)"/>
<path d="" fill="#303030" transform="translate(0,0)"/>
<path d="" fill="#252824" transform="translate(0,0)"/>
<path d="" fill="#2C2C28" transform="translate(0,0)"/>
<path d="" fill="#28282B" transform="translate(0,0)"/>
<path d="" fill="#222423" transform="translate(0,0)"/>
<path d="" fill="#2A292B" transform="translate(0,0)"/>
<path d="" fill="#2F2D2D" transform="translate(0,0)"/>
<path d="" fill="#2E2D2D" transform="translate(0,0)"/>
<path d="" fill="#2E2F2D" transform="translate(0,0)"/>
<path d="" fill="#2B2A2A" transform="translate(0,0)"/>
<path d="" fill="#2F2F2F" transform="translate(0,0)"/>
<path d="" fill="#2B2F2E" transform="translate(0,0)"/>
<path d="" fill="#323334" transform="translate(0,0)"/>
<path d="" fill="#2D2D2F" transform="translate(0,0)"/>
<path d="" fill="#2F2F31" transform="translate(0,0)"/>
<path d="" fill="#353535" transform="translate(0,0)"/>
<path d="" fill="#302F2E" transform="translate(0,0)"/>
<path d="" fill="#2F2E2D" transform="translate(0,0)"/>
<path d="" fill="#2B2E2C" transform="translate(0,0)"/>
<path d="" fill="#28292A" transform="translate(0,0)"/>
<path d="" fill="#292527" transform="translate(0,0)"/>
<path d="" fill="#27292B" transform="translate(0,0)"/>
<path d="" fill="#2A2C29" transform="translate(0,0)"/>
<path d="" fill="#464647" transform="translate(0,0)"/>
<path d="" fill="#2D2E2C" transform="translate(0,0)"/>
<path d="" fill="#2C2D2D" transform="translate(0,0)"/>
<path d="" fill="#3B3E3A" transform="translate(0,0)"/>
<path d="" fill="#3B3D3D" transform="translate(0,0)"/>
<path d="" fill="#393C3C" transform="translate(0,0)"/>
<path d="" fill="#353435" transform="translate(0,0)"/>
<path d="" fill="#3C3E3A" transform="translate(0,0)"/>
<path d="" fill="#353333" transform="translate(0,0)"/>
<path d="" fill="#343334" transform="translate(0,0)"/>
<path d="" fill="#383C39" transform="translate(0,0)"/>
<path d="" fill="#333433" transform="translate(0,0)"/>
<path d="" fill="#2E2F2E" transform="translate(0,0)"/>
<path d="" fill="#2C2B2A" transform="translate(0,0)"/>
<path d="" fill="#2C2B2D" transform="translate(0,0)"/>
<path d="" fill="#2B2A2B" transform="translate(0,0)"/>
<path d="" fill="#2A2929" transform="translate(0,0)"/>
<path d="" fill="#272627" transform="translate(0,0)"/>
<path d="" fill="#2F2F2E" transform="translate(0,0)"/>
<path d="" fill="#414343" transform="translate(0,0)"/>
<path d="" fill="#48494A" transform="translate(0,0)"/>
<path d="" fill="#242625" transform="translate(0,0)"/>
<path d="" fill="#252627" transform="translate(0,0)"/>
<path d="" fill="#2C2B2A" transform="translate(0,0)"/>
<path d="" fill="#3C3D3C" transform="translate(0,0)"/>
<path d="" fill="#2C2B2A" transform="translate(0,0)"/>
<path d="" fill="#272928" transform="translate(0,0)"/>
<path d="" fill="#2C2C2B" transform="translate(0,0)"/>
<path d="" fill="#282827" transform="translate(0,0)"/>
<path d="" fill="#2C2B2A" transform="translate(0,0)"/>
<path d="" fill="#222221" transform="translate(0,0)"/>
<path d="" fill="#292A2A" transform="translate(0,0)"/>
<path d="" fill="#1F1E20" transform="translate(0,0)"/>
<path d="" fill="#2F2D2D" transform="translate(0,0)"/>
<path d="" fill="#2A2A28" transform="translate(0,0)"/>
<path d="" fill="#292B29" transform="translate(0,0)"/>
<path d="" fill="#1F201E" transform="translate(0,0)"/>
<path d="" fill="#242528" transform="translate(0,0)"/>
<path d="" fill="#292A2B" transform="translate(0,0)"/>
<path d="" fill="#2D2D2D" transform="translate(0,0)"/>
<path d="" fill="#434542" transform="translate(0,0)"/>
<path d="" fill="#212222" transform="translate(0,0)"/>
<path d="" fill="#323131" transform="translate(0,0)"/>
<path d="" fill="#2C2C2C" transform="translate(0,0)"/>
<path d="" fill="#2E2E30" transform="translate(0,0)"/>
<path d="" fill="#262728" transform="translate(0,0)"/>
<path d="" fill="#2D2F2E" transform="translate(0,0)"/>
<path d="" fill="#262325" transform="translate(0,0)"/>
<path d="" fill="#272426" transform="translate(0,0)"/>
<path d="" fill="#262725" transform="translate(0,0)"/>
<path d="" fill="#282724" transform="translate(0,0)"/>
<path d="" fill="#2B2C2B" transform="translate(0,0)"/>
<path d="" fill="#2F3130" transform="translate(0,0)"/>
<path d="" fill="#2C2A2F" transform="translate(0,0)"/>
<path d="" fill="#232322" transform="translate(0,0)"/>
<path d="" fill="#222021" transform="translate(0,0)"/>
<path d="" fill="#252522" transform="translate(0,0)"/>
<path d="" fill="#2F2F30" transform="translate(0,0)"/>
<path d="" fill="#2B2C2A" transform="translate(0,0)"/>
<path d="" fill="#232324" transform="translate(0,0)"/>
<path d="" fill="#252223" transform="translate(0,0)"/>
<path d="" fill="#252425" transform="translate(0,0)"/>
<path d="" fill="#212120" transform="translate(0,0)"/>
<path d="" fill="#252424" transform="translate(0,0)"/>
<path d="" fill="#2B2B2A" transform="translate(0,0)"/>
<path d="" fill="#212121" transform="translate(0,0)"/>
<path d="" fill="#2E2C2E" transform="translate(0,0)"/>
<path d="" fill="#2C2E2E" transform="translate(0,0)"/>
<path d="" fill="#202321" transform="translate(0,0)"/>
<path d="" fill="#1E2120" transform="translate(0,0)"/>
<path d="" fill="#2D2B2C" transform="translate(0,0)"/>
<path d="" fill="#222426" transform="translate(0,0)"/>
<path d="" fill="#252220" transform="translate(0,0)"/>
<path d="" fill="#282927" transform="translate(0,0)"/>
<path d="" fill="#262525" transform="translate(0,0)"/>
<path d="" fill="#222525" transform="translate(0,0)"/>
<path d="" fill="#272928" transform="translate(0,0)"/>
<path d="" fill="#2D2F30" transform="translate(0,0)"/>
<path d="" fill="#282727" transform="translate(0,0)"/>
<path d="" fill="#31312F" transform="translate(0,0)"/>
<path d="" fill="#262727" transform="translate(0,0)"/>
<path d="" fill="#2D2C2E" transform="translate(0,0)"/>
<path d="" fill="#2E2E2E" transform="translate(0,0)"/>
<path d="" fill="#2A2A29" transform="translate(0,0)"/>
<path d="" fill="#282827" transform="translate(0,0)"/>
<path d="" fill="#2D2E2D" transform="translate(0,0)"/>
<path d="" fill="#28292A" transform="translate(0,0)"/>
<path d="" fill="#2C2B2D" transform="translate(0,0)"/>
<path d="" fill="#272626" transform="translate(0,0)"/>
<path d="" fill="#2D2E2D" transform="translate(0,0)"/>
<path d="" fill="#2C2C2B" transform="translate(0,0)"/>
<path d="" fill="#242525" transform="translate(0,0)"/>
<path d="" fill="#1E1E1F" transform="translate(0,0)"/>
<path d="" fill="#272825" transform="translate(0,0)"/>
<path d="" fill="#1F201F" transform="translate(0,0)"/>
<path d="" fill="#2D2D2D" transform="translate(0,0)"/>
<path d="" fill="#29282A" transform="translate(0,0)"/>
<path d="" fill="#242525" transform="translate(0,0)"/>
<path d="" fill="#2A2C2A" transform="translate(0,0)"/>
<path d="" fill="#252325" transform="translate(0,0)"/>
<path d="" fill="#252426" transform="translate(0,0)"/>
<path d="" fill="#2A2C29" transform="translate(0,0)"/>
<path d="" fill="#262524" transform="translate(0,0)"/>
<path d="" fill="#29292A" transform="translate(0,0)"/>
<path d="" fill="#2F2F2F" transform="translate(0,0)"/>
<path d="" fill="#2E2E31" transform="translate(0,0)"/>
<path d="" fill="#242726" transform="translate(0,0)"/>
<path d="" fill="#262829" transform="translate(0,0)"/>
<path d="" fill="#252226" transform="translate(0,0)"/>
<path d="" fill="#2D3029" transform="translate(0,0)"/>
<path d="" fill="#262427" transform="translate(0,0)"/>
<path d="" fill="#252627" transform="translate(0,0)"/>
<path d="" fill="#262527" transform="translate(0,0)"/>
<path d="" fill="#282828" transform="translate(0,0)"/>
<path d="" fill="#262824" transform="translate(0,0)"/>
<path d="" fill="#282829" transform="translate(0,0)"/>
<path d="" fill="#28292A" transform="translate(0,0)"/>
<path d="" fill="#272826" transform="translate(0,0)"/>
<path d="" fill="#242523" transform="translate(0,0)"/>
<path d="" fill="#262527" transform="translate(0,0)"/>
<path d="" fill="#171A1A" transform="translate(0,0)"/>
<path d="" fill="#282A27" transform="translate(0,0)"/>
<path d="" fill="#262729" transform="translate(0,0)"/>
<path d="" fill="#2B292A" transform="translate(0,0)"/>
<path d="" fill="#272626" transform="translate(0,0)"/>
<path d="" fill="#252827" transform="translate(0,0)"/>
<path d="" fill="#292A29" transform="translate(0,0)"/>
<path d="" fill="#292B2C" transform="translate(0,0)"/>
<path d="" fill="#262524" transform="translate(0,0)"/>
<path d="" fill="#262524" transform="translate(0,0)"/>
<path d="" fill="#292725" transform="translate(0,0)"/>
<path d="" fill="#242523" transform="translate(0,0)"/>
<path d="" fill="#232424" transform="translate(0,0)"/>
<path d="" fill="#252226" transform="translate(0,0)"/>
<path d="" fill="#2A2727" transform="translate(0,0)"/>
<path d="" fill="#2B2D2E" transform="translate(0,0)"/>
<path d="" fill="#28282A" transform="translate(0,0)"/>
<path d="" fill="#252829" transform="translate(0,0)"/>
<path d="" fill="#1F201E" transform="translate(0,0)"/>
<path d="" fill="#1A1B1A" transform="translate(0,0)"/>
<path d="" fill="#222324" transform="translate(0,0)"/>
<path d="" fill="#1F1F1D" transform="translate(0,0)"/>
<path d="" fill="#1E1E1D" transform="translate(0,0)"/>
<path d="" fill="#1F2021" transform="translate(0,0)"/>
<path d="" fill="#1C1A1B" transform="translate(0,0)"/>
<path d="" fill="#2E2E2C" transform="translate(0,0)"/>
<path d="" fill="#1F1D1E" transform="translate(0,0)"/>
<path d="" fill="#323432" transform="translate(0,0)"/>
<path d="" fill="#2C2D2C" transform="translate(0,0)"/>
<path d="" fill="#232223" transform="translate(0,0)"/>
<path d="" fill="#2E3132" transform="translate(0,0)"/>
<path d="" fill="#211F20" transform="translate(0,0)"/>
<path d="" fill="#222123" transform="translate(0,0)"/>
<path d="" fill="#242324" transform="translate(0,0)"/>
<path d="" fill="#323333" transform="translate(0,0)"/>
<path d="" fill="#2C2F2F" transform="translate(0,0)"/>
<path d="" fill="#2D2E2F" transform="translate(0,0)"/>
<path d="" fill="#2B2A2C" transform="translate(0,0)"/>
<path d="" fill="#292A2C" transform="translate(0,0)"/>
<path d="" fill="#232525" transform="translate(0,0)"/>
<path d="" fill="#262624" transform="translate(0,0)"/>
<path d="" fill="#232523" transform="translate(0,0)"/>
<path d="" fill="#272828" transform="translate(0,0)"/>
<path d="" fill="#272727" transform="translate(0,0)"/>
<path d="" fill="#252426" transform="translate(0,0)"/>
<path d="" fill="#272624" transform="translate(0,0)"/>
<path d="" fill="#232525" transform="translate(0,0)"/>
<path d="" fill="#262628" transform="translate(0,0)"/>
<path d="" fill="#212320" transform="translate(0,0)"/>
<path d="" fill="#282725" transform="translate(0,0)"/>
<path d="" fill="#262727" transform="translate(0,0)"/>
<path d="" fill="#1E2021" transform="translate(0,0)"/>
<path d="" fill="#242824" transform="translate(0,0)"/>
<path d="" fill="#222122" transform="translate(0,0)"/>
<path d="" fill="#28272A" transform="translate(0,0)"/>
<path d="" fill="#232322" transform="translate(0,0)"/>
<path d="" fill="#272422" transform="translate(0,0)"/>
<path d="" fill="#2D2D2C" transform="translate(0,0)"/>
<path d="" fill="#252625" transform="translate(0,0)"/>
<path d="" fill="#4E4E4F" transform="translate(0,0)"/>
<path d="" fill="#262828" transform="translate(0,0)"/>
<path d="" fill="#2C2927" transform="translate(0,0)"/>
<path d="" fill="#292929" transform="translate(0,0)"/>
<path d="" fill="#282A28" transform="translate(0,0)"/>
<path d="" fill="#292928" transform="translate(0,0)"/>
<path d="" fill="#2B2B28" transform="translate(0,0)"/>
<path d="" fill="#30302F" transform="translate(0,0)"/>
<path d="" fill="#494A49" transform="translate(0,0)"/>
<path d="" fill="#4E504E" transform="translate(0,0)"/>
<path d="" fill="#545454" transform="translate(0,0)"/>
</svg>
